<?xml version="1.0" encoding="UTF-8"?>
<svg version="1.1" xmlns="http://www.w3.org/2000/svg" width="512" height="512">
<path d="M0 0 C168.96 0 337.92 0 512 0 C512 168.96 512 337.92 512 512 C343.04 512 174.08 512 0 512 C0 343.04 0 174.08 0 0 Z " fill="#F9F9F9" transform="translate(0,0)"/>
<path d="M0 0 C2.19604214 -0.00599384 4.39208218 -0.01280134 6.58811951 -0.02035522 C12.522399 -0.03793719 18.45662071 -0.04270736 24.39092374 -0.0439868 C28.10836392 -0.04541361 31.82578966 -0.04969326 35.54322624 -0.05498123 C47.87139592 -0.07250588 60.19953066 -0.08182468 72.52771295 -0.08032028 C73.19016924 -0.08024037 73.85262553 -0.08016046 74.53515625 -0.08007812 C75.19843746 -0.07999636 75.86171867 -0.0799146 76.54509931 -0.07983036 C86.61117452 -0.07906907 96.67712539 -0.09464234 106.74316406 -0.12109375 C118.47577773 -0.15181751 130.20829957 -0.16860501 141.94095558 -0.16716731 C148.13534385 -0.1666602 154.32957276 -0.17220303 160.52392769 -0.19352341 C166.35751524 -0.21305574 172.19079387 -0.21292879 178.02439308 -0.19849014 C180.14942126 -0.19641928 182.27446956 -0.20099829 184.39946365 -0.21321106 C208.21771593 -0.34108911 230.78875432 2.75543926 249.09545898 19.29052734 C249.75545898 19.84740234 250.41545898 20.40427734 251.09545898 20.97802734 C267.92431754 36.22918041 271.92656086 58.40988098 273.2670939 80.06286311 C273.51617985 86.38007466 273.49464894 92.69588711 273.46777344 99.0168457 C273.47021077 101.07307112 273.47393912 103.12929533 273.47883606 105.18551636 C273.4881158 110.69131675 273.47893248 116.19693535 273.46550393 121.70272136 C273.45405495 127.50474058 273.45830692 133.3067526 273.46025085 139.10877991 C273.46112914 148.8377677 273.4501475 158.56668518 273.43164062 168.2956543 C273.41043848 179.50492339 273.40697485 190.71408997 273.41320258 201.92337507 C273.41891656 212.768155 273.41322934 223.61289925 273.40202904 234.45767403 C273.39741418 239.04695872 273.39649552 243.63622137 273.39861488 248.22550774 C273.40051253 253.63399648 273.39228157 259.04238234 273.37655449 264.45084763 C273.37235005 266.42274996 273.37143483 268.3946628 273.37424469 270.36656761 C273.39167795 284.80080356 273.36967328 299.63163776 268.53295898 313.41552734 C268.27538818 314.16068604 268.01781738 314.90584473 267.75244141 315.67358398 C261.34465512 333.17299216 248.72864802 346.86865948 232.09545898 355.29052734 C223.98051779 358.79003994 215.84768964 361.12356326 207.09545898 362.29052734 C205.31274833 362.54480059 205.31274833 362.54480059 203.49402332 362.80421066 C198.99321697 363.36212129 194.55384051 363.43582745 190.02311707 363.43096924 C189.14355655 363.43394036 188.26399604 363.43691148 187.35778219 363.43997264 C184.42812752 363.4486024 181.49851399 363.45016304 178.56884766 363.45166016 C176.46059076 363.45629256 174.35233469 363.46131779 172.24407959 363.46670532 C166.52651809 363.47979475 160.80896832 363.48626808 155.09139419 363.49071598 C151.5118537 363.49365364 147.93231637 363.49775984 144.35277748 363.50222015 C133.13210128 363.51588894 121.91143234 363.52555738 110.69074839 363.52942204 C97.77856676 363.53389472 84.86649141 363.55140853 71.95434207 363.58042264 C61.94886888 363.60211721 51.94342541 363.61213054 41.93792897 363.61346316 C35.97435208 363.61450607 30.01087516 363.62030307 24.04732323 363.63828278 C18.42725329 363.65489731 12.80735704 363.65685475 7.18727112 363.64814377 C5.13922977 363.64738037 3.09117857 363.65162244 1.04316139 363.66160202 C-25.36921603 363.7826201 -48.49987721 360.51749851 -68.55688477 341.73193359 C-83.14741256 326.55875577 -90.07665047 306.88647579 -90.03825378 286.05250549 C-90.04051934 285.14309784 -90.0427849 284.23369019 -90.04511911 283.29672474 C-90.05143109 280.26022207 -90.05063153 277.22376435 -90.04980469 274.18725586 C-90.05279805 272.00531456 -90.05620098 269.82337379 -90.0599823 267.64143372 C-90.06881148 261.71947235 -90.07116005 255.79752545 -90.07179809 249.87555814 C-90.07250955 246.17058173 -90.07464575 242.46560897 -90.0772953 238.76063347 C-90.08606995 226.48743287 -90.09071545 214.21424108 -90.08996483 201.9410373 C-90.08992487 201.28011169 -90.08988492 200.61918608 -90.08984375 199.93823242 C-90.08980287 199.27649019 -90.08976199 198.61474796 -90.08971987 197.93295293 C-90.08928901 186.56539299 -90.10065484 175.19787613 -90.11558741 163.83032662 C-90.12869798 153.47842657 -90.13402613 143.12654115 -90.13338834 132.77463287 C-90.13313426 126.60045188 -90.13593535 120.42631081 -90.14656639 114.25213814 C-90.15630589 108.43677383 -90.15628671 102.62148709 -90.14904976 96.80611992 C-90.14801095 94.68264527 -90.15032452 92.55916565 -90.15641022 90.43569946 C-90.22571125 64.55886437 -87.95235791 40.38900628 -68.78735352 21.01318359 C-48.93760496 2.26619885 -25.92092496 -0.01418345 0 0 Z " fill="#0488EA" transform="translate(164.904541015625,74.70947265625)"/>
<path d="M0 0 C5.31202624 4.3706545 6.32404891 8.79992629 7.21484375 15.41015625 C7.33408203 16.2292749 7.45332031 17.04839355 7.57617188 17.89233398 C7.83989536 19.706437 8.09928004 21.52117453 8.35498047 23.33642578 C8.7989665 26.43611551 9.27157641 29.53044584 9.75 32.625 C11.65958018 45.06285405 13.32024373 57.50103187 14.703125 70.00830078 C15.42220837 76.43999347 16.267236 82.83053753 17.27734375 89.22265625 C18.68585098 98.1603082 19.68807618 107.12478991 20.64575195 116.12084961 C21.53640108 124.39888944 22.59418824 132.63976614 23.86328125 140.86865234 C26.4432135 158.47391584 26.4432135 158.47391584 21.1875 165.6328125 C13.98772294 174.06911637 2.90340621 173.71239645 -7.47265625 174.72265625 C-15.62394649 175.55532058 -23.74645156 176.42959351 -31.84765625 177.66015625 C-41.89082917 179.16564174 -51.96558701 180.40645505 -62.04681396 181.62554932 C-63.93806568 181.85481516 -65.82906428 182.08617981 -67.7197876 182.31976318 C-70.41144965 182.65158091 -73.10397787 182.97525257 -75.796875 183.296875 C-76.59730728 183.39672195 -77.39773956 183.49656891 -78.22242737 183.59944153 C-88.48145695 184.80077733 -96.3458057 185.11618835 -105.22265625 179.28515625 C-113.44419345 172.32847093 -113.2097046 156.52153151 -114.546875 146.4296875 C-114.75881514 144.86493784 -114.97103785 143.30022643 -115.18351746 141.73554993 C-117.6906195 123.15501384 -120.01385686 104.55002668 -122.29956055 85.94116211 C-122.91782241 80.91156571 -123.5473089 75.88343574 -124.1790514 70.85551739 C-124.67332127 66.90539942 -125.15941275 62.95430497 -125.64334679 59.00290871 C-125.87194734 57.14768981 -126.10350035 55.29283179 -126.33832741 53.43839073 C-127.41044771 44.95211737 -128.41998462 36.47611218 -128.61206055 27.91723633 C-128.6383403 26.77410477 -128.66462006 25.63097321 -128.69169617 24.45320129 C-128.00752138 19.83206678 -125.6954181 16.83954924 -122.53125 13.5 C-118.9442943 11.61244802 -115.27699126 11.32552027 -111.28515625 10.84765625 C-109.37757976 10.59784258 -107.47002907 10.34783177 -105.5625 10.09765625 C-104.02505127 9.90236328 -104.02505127 9.90236328 -102.45654297 9.703125 C-97.95106721 9.12080773 -93.45358581 8.48487977 -88.95483398 7.85302734 C-76.0763229 6.04872833 -63.18474 4.35749802 -50.28369141 2.72387695 C-43.62580083 1.87567066 -36.98651145 0.96379786 -30.35375977 -0.06201172 C-6.87261608 -3.6570648 -6.87261608 -3.6570648 0 0 Z " fill="#FAFBFB" transform="translate(274.22265625,107.71484375)"/>
<path d="M0 0 C9.35293147 6.80780988 16.67421046 15.64240462 19.14453125 27.140625 C20.70118887 38.07519561 19.20888847 48.58021157 12.65234375 57.703125 C11.61145314 58.95064401 10.54897438 60.18049372 9.46484375 61.390625 C8.96339844 61.99519531 8.46195312 62.59976563 7.9453125 63.22265625 C-0.16869237 72.28428213 -12.70155507 76.68258826 -24.60546875 77.63671875 C-32.04309266 77.79840623 -32.04309266 77.79840623 -35.7434082 76.78710938 C-43.07704072 74.83706763 -47.64022244 76.25604261 -54.47265625 79.265625 C-56.31352046 80.03764141 -58.1559052 80.80604505 -60 81.5703125 C-60.80042725 81.91819824 -61.60085449 82.26608398 -62.42553711 82.62451172 C-64.53515625 83.390625 -64.53515625 83.390625 -67.53515625 83.390625 C-67.10865531 78.78441488 -66.38901864 74.67505507 -64.97265625 70.265625 C-63.32101976 64.92492227 -63.32101976 64.92492227 -63.53515625 59.390625 C-64.62804269 57.39746812 -65.81939963 55.55482787 -67.1484375 53.7109375 C-70.85269994 47.5128195 -72.07016364 41.68280177 -71.97265625 34.515625 C-71.96435791 33.72551025 -71.95605957 32.93539551 -71.94750977 32.12133789 C-71.61501829 20.60955997 -66.71919853 12.95545806 -58.94921875 4.70703125 C-43.37756973 -9.91512697 -17.70023188 -11.23651084 0 0 Z " fill="#F9FAFB" transform="translate(379.53515625,147.609375)"/>
<path d="M0 0 C0.12334717 0.98822754 0.24669434 1.97645508 0.3737793 2.99462891 C1.21015865 9.69222523 2.04822645 16.38958635 2.89453125 23.0859375 C4.9647581 39.50606375 6.94827462 55.93481694 8.8862915 72.37106323 C10.17110804 83.25221186 11.5054325 94.11969303 13.04711914 104.96801758 C13.83531659 110.57266243 14.44670488 116.18023941 15 121.8125 C16.08273374 140.93668308 16.08273374 140.93668308 25 157 C27.86777601 159.03829582 30.77562206 160.60370416 34 162 C35.13103149 162.51494019 35.13103149 162.51494019 36.28491211 163.0402832 C48.8274086 167.47374725 66.23627575 162.48617062 79 160.75 C81.43169334 160.4260122 83.86349758 160.10285567 86.29541016 159.78051758 C92.16579747 159.00057169 98.03484355 158.21106351 103.90344238 157.41778564 C108.84046395 156.75168574 113.77876838 156.09532863 118.71730042 155.4405365 C121.7799642 155.03416149 124.84196516 154.62374509 127.90307617 154.20581055 C132.60677 153.56498508 137.30181635 152.94823476 142.02734375 152.4921875 C152.86689076 151.49264036 152.86689076 151.49264036 162 146 C166.84040158 139.55299705 169.13172827 134.21959923 169.09765625 126.14453125 C169.0962413 125.48289474 169.09482635 124.82125824 169.09336853 124.13957214 C169.08777996 122.03050172 169.07522965 119.92153823 169.0625 117.8125 C169.05748352 116.38086091 169.05292087 114.94922015 169.04882812 113.51757812 C169.0378143 110.01168412 169.02055755 106.5058525 169 103 C171.97 103 174.94 103 178 103 C178.36949771 112.99904054 178.70094284 122.99863663 179 133 C179.04737305 134.48137451 179.04737305 134.48137451 179.09570312 135.99267578 C179.16483549 138.32855189 179.2131139 140.66342843 179.25 143 C179.28867187 144.85625 179.28867187 144.85625 179.328125 146.75 C178.59122364 154.04883255 174.33481084 157.99867024 169.125 162.6875 C162.31055056 166.89642465 154.61666211 166.29583173 146.8828125 166.30859375 C144.88647978 166.32578607 142.89014711 166.34300373 140.89382362 166.36123657 C138.76780893 166.37947514 136.64179785 166.39368266 134.51574707 166.40701294 C127.07002315 166.45590194 119.62481974 166.54364922 112.1796875 166.6484375 C111.0442601 166.66438682 111.0442601 166.66438682 109.88589478 166.68065834 C91.61250235 166.95113228 73.39495025 167.89460518 55.15283203 168.98413086 C22.21603405 170.95025172 22.21603405 170.95025172 16.609375 167.5 C7.37331367 158.89163216 7.07638547 143.00091157 5.6875 131.23828125 C4.16791671 118.75347237 2.22483735 106.35225345 0.2116394 93.93893433 C-2.57381208 76.72008269 -5.34368376 59.49423414 -7.74468994 42.21688843 C-7.95179273 40.73151156 -8.16251214 39.24663306 -8.37738037 37.76235962 C-12.09127771 11.98175357 -12.09127771 11.98175357 -8.64477539 5.41967773 C-6.29117191 2.54355538 -3.90179096 0 0 0 Z " fill="#87D2FD" transform="translate(138,137)"/>
<path d="M0 0 C1.13050781 -0.06058594 2.26101562 -0.12117187 3.42578125 -0.18359375 C7.02921072 0.50256827 8.31583412 1.48131235 10.45629883 4.42407227 C13.05714355 8.67732755 15.2132365 13.13711805 17.375 17.625 C18.4384361 19.79378746 19.50356056 21.96174782 20.5703125 24.12890625 C21.09657227 25.20027832 21.62283203 26.27165039 22.16503906 27.37548828 C24.28736697 31.64396753 26.50819782 35.85589603 28.75 40.0625 C30.40085712 43.18486853 32.04582445 46.31029484 33.6875 49.4375 C34.4302417 50.85168213 34.4302417 50.85168213 35.18798828 52.29443359 C36.74331907 55.27269564 38.27992138 58.25997643 39.8125 61.25 C40.54158569 62.63856201 40.54158569 62.63856201 41.28540039 64.05517578 C45.60016894 72.54711562 45.60016894 72.54711562 44.6875 77.4375 C41.71043433 80.1310356 39.58950738 81.29023349 35.625 81.9375 C31.72111437 81.27300883 30.40020778 80.35887761 27.6875 77.4375 C22.6875 68.92101648 22.6875 68.92101648 22.6875 65.4375 C18.77205817 65.81806203 14.85780085 66.20898115 10.94433594 66.609375 C8.96083063 66.81013855 6.97650814 67.00277446 4.9921875 67.1953125 C3.74179688 67.32421875 2.49140625 67.453125 1.203125 67.5859375 C0.05102539 67.70114746 -1.10107422 67.81635742 -2.28808594 67.93505859 C-5.10342093 68.40276601 -6.97877368 68.81542164 -9.3125 70.4375 C-10.18335158 72.96795425 -10.82989883 75.27660294 -11.375 77.875 C-13.19317727 86.26719815 -13.19317727 86.26719815 -16.3125 88.4375 C-19.84244613 89.61414871 -22.60705413 89.63600603 -26.3125 89.4375 C-27.3025 88.7775 -28.2925 88.1175 -29.3125 87.4375 C-30.22378792 79.77524237 -27.93676121 72.3550177 -26.1875 64.9375 C-25.8675576 63.55261144 -25.54814666 62.16759999 -25.22924805 60.7824707 C-23.05678842 51.39604499 -20.76856761 42.03888311 -18.37695312 32.70581055 C-17.22581632 28.19628643 -16.13088217 23.69160875 -15.19140625 19.1328125 C-15.01955811 18.30499268 -14.84770996 17.47717285 -14.6706543 16.62426758 C-14.36112679 15.10321905 -14.06330649 13.57971263 -13.78051758 12.0534668 C-12.86783436 7.56228909 -11.50400708 4.73456276 -8.3125 1.4375 C-5.52219304 0.04234652 -3.11175629 0.1162944 0 0 Z " fill="#088FEE" transform="translate(217.3125,147.5625)"/>
<path d="M0 0 C3.14989112 2.0760646 5.91965393 4.31909989 8.75 6.8125 C9.00652344 6.19890625 9.26304687 5.5853125 9.52734375 4.953125 C11.61028481 1.30631445 14.87298031 0.11592343 18.75 -1.1875 C25.18929587 -2.30737754 30.41625185 -0.90056277 35.75 2.8125 C40.75158994 7.81408994 41.97361963 13.25037988 42.00224304 20.10786438 C41.99146477 21.27070198 41.99146477 21.27070198 41.98046875 22.45703125 C41.98001053 23.26742355 41.97955231 24.07781586 41.9790802 24.9127655 C41.9760735 26.61462887 41.96823495 28.31648988 41.95581055 30.01831055 C41.93743643 32.63404982 41.93530188 35.24943699 41.93554688 37.86523438 C41.93063553 39.52083642 41.9248089 41.17643605 41.91796875 42.83203125 C41.91685593 43.61737747 41.9157431 44.40272369 41.91459656 45.21186829 C41.86608788 50.69641212 41.86608788 50.69641212 40.75 51.8125 C38.75200428 51.91123816 36.75042842 51.94221799 34.75 51.9375 C33.656875 51.94007813 32.56375 51.94265625 31.4375 51.9453125 C28.75 51.8125 28.75 51.8125 27.75 50.8125 C27.6277273 48.59209597 27.57017308 46.36808174 27.5390625 44.14453125 C27.51097212 42.76235839 27.48230754 41.38019711 27.453125 39.99804688 C27.41201439 37.81698193 27.3751352 35.63612796 27.34863281 33.45483398 C27.32084602 31.35094232 27.27495419 29.24803691 27.2265625 27.14453125 C27.1968335 25.25311401 27.1968335 25.25311401 27.16650391 23.32348633 C26.71287697 19.49956545 25.77587558 17.07150426 23.75 13.8125 C20.86487022 11.46727065 20.86487022 11.46727065 17.25 11.9375 C13.81759451 12.49670336 13.81759451 12.49670336 12.05883789 14.38232422 C10.25433559 17.7328215 10.30919376 20.8567609 10.30859375 24.5703125 C10.29538589 25.31457489 10.28217804 26.05883728 10.26856995 26.82565308 C10.22775878 29.1963074 10.2060191 31.5665743 10.1875 33.9375 C10.1637253 36.31545002 10.13565685 38.69303453 10.09571838 41.07077026 C10.07132936 42.54860682 10.05649679 44.02663791 10.05210876 45.50466919 C9.9745503 50.5879497 9.9745503 50.5879497 7.75 52.8125 C5.4375 53.078125 5.4375 53.078125 2.75 53.0625 C1.4196875 53.07023437 1.4196875 53.07023437 0.0625 53.078125 C-2.25 52.8125 -2.25 52.8125 -4.25 50.8125 C-4.52124023 47.83496094 -4.52124023 47.83496094 -4.55859375 44.046875 C-4.58376926 42.66796481 -4.60916704 41.28905866 -4.63476562 39.91015625 C-4.66341587 37.74008377 -4.68743409 35.5700821 -4.70629883 33.39990234 C-4.72809008 31.30267399 -4.7675533 29.20630254 -4.80859375 27.109375 C-4.82204834 25.85479492 -4.83550293 24.60021484 -4.84936523 23.30761719 C-5.28770939 19.48352518 -6.22433739 17.06952952 -8.25 13.8125 C-11.13512978 11.46727065 -11.13512978 11.46727065 -14.75 11.9375 C-18.18240549 12.49670336 -18.18240549 12.49670336 -19.94116211 14.38232422 C-21.74566441 17.7328215 -21.69080624 20.8567609 -21.69140625 24.5703125 C-21.70461411 25.31457489 -21.71782196 26.05883728 -21.73143005 26.82565308 C-21.77224122 29.1963074 -21.7939809 31.5665743 -21.8125 33.9375 C-21.8362747 36.31545002 -21.86434315 38.69303453 -21.90428162 41.07077026 C-21.92867064 42.54860682 -21.94350321 44.02663791 -21.94789124 45.50466919 C-22.0254497 50.5879497 -22.0254497 50.5879497 -24.25 52.8125 C-26.52734375 53.11328125 -26.52734375 53.11328125 -29.1875 53.125 C-30.06277344 53.14175781 -30.93804687 53.15851563 -31.83984375 53.17578125 C-34.76818481 52.73439435 -35.45811405 52.12571547 -37.25 49.8125 C-37.6242218 47.64292908 -37.6242218 47.64292908 -37.62231445 45.09741211 C-37.62854324 44.14309799 -37.63477203 43.18878387 -37.64118958 42.20555115 C-37.63197983 41.17736771 -37.62277008 40.14918427 -37.61328125 39.08984375 C-37.61377975 38.03342178 -37.61427826 36.97699982 -37.61479187 35.88856506 C-37.61245083 33.65510172 -37.60272061 31.42163576 -37.58618164 29.18823242 C-37.56256898 25.76001539 -37.56562311 22.33257465 -37.57226562 18.90429688 C-37.56668973 16.73697451 -37.55958041 14.56965543 -37.55078125 12.40234375 C-37.55214836 10.85703224 -37.55214836 10.85703224 -37.55354309 9.28050232 C-37.54401108 8.32934036 -37.53447906 7.37817841 -37.5246582 6.39819336 C-37.52005081 5.55896835 -37.51544342 4.71974335 -37.51069641 3.85508728 C-37.25 1.8125 -37.25 1.8125 -35.25 -0.1875 C-32.6484375 -0.3828125 -32.6484375 -0.3828125 -29.625 -0.3125 C-28.12066406 -0.28542969 -28.12066406 -0.28542969 -26.5859375 -0.2578125 C-25.81507813 -0.23460937 -25.04421875 -0.21140625 -24.25 -0.1875 C-23.59 1.4625 -22.93 3.1125 -22.25 4.8125 C-21.5075 4.19375 -20.765 3.575 -20 2.9375 C-13.76937613 -1.87707299 -7.47903972 -2.73272605 0 0 Z " fill="#F5F8FB" transform="translate(284.25,344.1875)"/>
<path d="M0 0 C6.65274979 5.66673747 10.3147835 11.80368511 11.2734375 20.47265625 C11.61964667 29.08793822 9.25461749 36.44503552 3.8828125 43.20703125 C-2.62068128 49.40019234 -11.0916517 51.44107305 -19.796875 51.3359375 C-26.88335338 50.59272148 -32.14393277 47.27958903 -36.9375 42.125 C-43.31858474 33.99814679 -43.83539335 27.22196585 -43 17 C-41.7160492 9.71357919 -38.23769949 4.07771111 -32.23046875 -0.28515625 C-22.69754166 -6.07968056 -9.43509617 -5.89891727 0 0 Z " fill="#F6F9FB" transform="translate(376,347)"/>
<path d="M0 0 C1.05832031 -0.06058594 2.11664063 -0.12117188 3.20703125 -0.18359375 C6.1875 0.4375 6.1875 0.4375 8.14428711 2.83813477 C10.81872663 7.13689185 12.28075337 11.86588099 13.859375 16.6484375 C14.18665588 17.61657379 14.51393677 18.58471008 14.85113525 19.58218384 C15.88822149 22.65623751 16.91301312 25.7342273 17.9375 28.8125 C18.64111768 30.90522023 19.34553622 32.99767137 20.05078125 35.08984375 C21.77230498 40.20265029 23.48376979 45.3187385 25.1875 50.4375 C26.50055159 46.79134666 27.8111214 43.1443107 29.11911011 39.49633789 C29.58035582 38.20994124 30.04188211 36.92364516 30.50369263 35.63745117 C33.58026125 27.06197924 36.59757353 18.47326333 39.29736328 9.77001953 C41.50738847 2.8617827 41.50738847 2.8617827 44.1875 0.4375 C47.03515625 -0.0234375 47.03515625 -0.0234375 50.25 0.0625 C51.84521484 0.08183594 51.84521484 0.08183594 53.47265625 0.1015625 C56.1875 0.4375 56.1875 0.4375 58.1875 2.4375 C57.76971218 6.30771154 56.41097991 9.8316364 55.0703125 13.46875 C54.63332031 14.65871582 54.19632813 15.84868164 53.74609375 17.07470703 C53.26853237 18.36241718 52.79066039 19.65001216 52.3125 20.9375 C51.82152207 22.26542804 51.33063802 23.59339079 50.83984375 24.92138672 C49.5553181 28.39216317 48.26451098 31.86057372 46.97229004 35.32849121 C46.19244713 37.42420531 45.41561987 39.52101373 44.63964844 41.61816406 C43.4003855 44.96587973 42.15375398 48.31075985 40.90130615 51.65356445 C40.19869445 53.53256263 39.50188696 55.41372787 38.80517578 57.29492188 C38.37446777 58.43767578 37.94375977 59.58042969 37.5 60.7578125 C37.12488281 61.76086426 36.74976563 62.76391602 36.36328125 63.79736328 C35.20966344 66.38773351 34.11203271 68.35689146 32.1875 70.4375 C28.97265625 71.0390625 28.97265625 71.0390625 25.25 71.0625 C24.02410156 71.09601563 22.79820312 71.12953125 21.53515625 71.1640625 C18.1875 70.4375 18.1875 70.4375 16.30566406 68.2265625 C13.03336867 62.92088556 11.11010969 56.90383728 8.94921875 51.0859375 C8.45965179 49.7811668 7.96972168 48.4765323 7.47944641 47.17202759 C6.45820244 44.44896151 5.4428552 41.72378539 4.43139648 38.99707031 C3.13493802 35.5041554 1.8215514 32.01788289 0.50345135 28.53308678 C-0.51048415 25.84562974 -1.5142655 23.15446631 -2.51512718 20.46211624 C-2.99536959 19.17465098 -3.47903088 17.88845561 -3.9661808 16.6035881 C-4.64457123 14.81044884 -5.30762984 13.01153174 -5.9699707 11.21240234 C-6.35095413 10.19125336 -6.73193756 9.17010437 -7.12446594 8.11801147 C-7.83290917 5.35798791 -7.85431637 4.05345349 -6.8125 1.4375 C-5.00680245 -0.36819755 -2.44168533 0.09743122 0 0 Z " fill="#F6F8FB" transform="translate(133.8125,326.5625)"/>
<path d="M0 0 C5.46662586 4.23101864 9.35523292 9.4767617 10.7109375 16.32421875 C10.98077812 20.34184582 11.0449879 24.30918987 10.7109375 28.32421875 C9.7109375 29.32421875 9.7109375 29.32421875 6.56811523 29.43774414 C5.17691053 29.43758508 3.78569989 29.43189381 2.39453125 29.421875 C1.66347672 29.42046005 0.93242218 29.4190451 0.17921448 29.41758728 C-2.16441882 29.41197283 -4.50795789 29.39941797 -6.8515625 29.38671875 C-8.43684758 29.38170561 -10.02213416 29.37714238 -11.60742188 29.37304688 C-15.5013386 29.36199872 -19.39518455 29.34472447 -23.2890625 29.32421875 C-22.05005816 34.5893721 -22.05005816 34.5893721 -18.7890625 38.76171875 C-13.57151279 41.09098201 -8.5275117 41.36052249 -3.04296875 39.60546875 C-2.36105469 39.32703125 -1.67914063 39.04859375 -0.9765625 38.76171875 C2.68902389 37.33276134 4.08876513 37.00706516 7.7109375 38.32421875 C8.0409375 38.65421875 8.3709375 38.98421875 8.7109375 39.32421875 C8.6484375 42.63671875 8.6484375 42.63671875 7.7109375 46.32421875 C0.749498 52.3142946 -6.74682898 52.76591774 -15.58203125 52.64453125 C-20.51996358 52.2178606 -24.1156033 50.93035266 -28.2890625 48.32421875 C-29.1965625 47.78796875 -30.1040625 47.25171875 -31.0390625 46.69921875 C-37.6502037 39.72079193 -39.79669483 30.74895947 -39.6953125 21.37109375 C-38.7497683 14.27951228 -35.13087885 7.58715722 -29.8515625 2.76171875 C-21.25148084 -3.56241939 -9.61647086 -5.78205526 0 0 Z " fill="#F5F8FB" transform="translate(228.2890625,345.67578125)"/>
<path d="M0 0 C1.46713327 2.93426655 0.91310044 4.81811864 -0.0625 7.875 C-3.59514917 10.39391053 -7.83142402 10.53080102 -12.0246582 11.00415039 C-12.82354462 11.10037186 -13.62243103 11.19659332 -14.44552612 11.29573059 C-17.08399169 11.61176374 -19.72357105 11.91720897 -22.36328125 12.22265625 C-24.20175589 12.44092783 -26.04014912 12.65988619 -27.87846375 12.87950134 C-32.71981314 13.45611436 -37.56215987 14.02387653 -42.40478516 14.58966064 C-48.27366141 15.27695979 -54.14132534 15.97451597 -60.00916576 16.67059231 C-64.5782671 17.21241038 -69.14753098 17.75270843 -73.71736145 18.28834534 C-74.56150101 18.3875528 -75.40564056 18.48676025 -76.27536011 18.588974 C-77.83972507 18.77275245 -79.40416682 18.95587904 -80.96870422 19.13818359 C-85.34376116 19.65297184 -89.70295329 20.24314118 -94.0625 20.875 C-98.07996091 21.29248742 -101.12103577 21.49498864 -104.625 19.1875 C-106.0625 16.875 -106.0625 16.875 -105.9375 14.1875 C-105.0625 11.875 -105.0625 11.875 -103.0625 10.875 C-101.06212682 10.53579426 -99.0538024 10.243029 -97.04296875 9.97265625 C-95.18248901 9.72201416 -95.18248901 9.72201416 -93.28442383 9.46630859 C-91.93965409 9.2897478 -90.59484529 9.11348439 -89.25 8.9375 C-88.57488373 8.84784973 -87.89976746 8.75819946 -87.20419312 8.66583252 C-77.81332847 7.4205534 -68.42041038 6.31125306 -58.9753418 5.55883789 C-54.87581757 5.2171746 -50.89347451 4.69187353 -46.8515625 3.91796875 C-40.31414922 2.67666605 -33.74031492 1.99684292 -27.125 1.3125 C-24.74062004 1.06372842 -22.35649142 0.81253269 -19.97265625 0.55859375 C-18.41236694 0.39701782 -18.41236694 0.39701782 -16.82055664 0.23217773 C-2.88335246 -1.5727377 -2.88335246 -1.5727377 0 0 Z " fill="#0C8EED" transform="translate(285.0625,259.125)"/>
<path d="M0 0 C3.54099178 1.77049589 5.54089861 3.37256144 7.875 6.5625 C9.65413778 11.99875432 10.12322346 17.6605238 8.2734375 23.16015625 C6.26127509 27.0127111 4.02616157 29.40826171 0 31 C-3.32608413 31.48379406 -5.72608903 31.73293508 -8.7109375 30.015625 C-11.66004269 27.68511261 -13.66138152 25.48407551 -15 22 C-16.31608874 10.15520134 -16.31608874 10.15520134 -13.25 5.375 C-8.85573921 0.73661361 -6.65578152 -0.80328398 0 0 Z " fill="#0782E7" transform="translate(363,355)"/>
<path d="M0 0 C5.59406511 0.37925865 9.03489054 0.69502401 13 5 C15.95835465 10.62087384 16.57868721 15.37748393 16.5625 21.6875 C16.5622583 22.57091064 16.5620166 23.45432129 16.56176758 24.36450195 C16.3894687 30.96808316 14.97144081 35.72270003 11.53515625 41.43359375 C9.32890061 45.12191425 8.23070566 48.8976478 7 53 C6.67 53 6.34 53 6 53 C5.13911522 46.57790795 4.28538059 40.15489399 3.43652344 33.73120117 C3.14714003 31.547716 2.85614276 29.36444407 2.56347656 27.18139648 C2.14219732 24.03684786 1.72679835 20.89156878 1.3125 17.74609375 C1.18125732 16.7760289 1.05001465 15.80596405 0.91479492 14.8065033 C0.26418847 9.82138406 -0.14580627 5.02727857 0 0 Z " fill="#94D8FD" transform="translate(291,122)"/>
<path d="M0 0 C0.66 0 1.32 0 2 0 C4.02220997 4.2311205 6.03407077 8.46694353 8.03637695 12.70751953 C8.7194033 14.15027659 9.40526958 15.59169266 10.09399414 17.03173828 C11.0818338 19.09844961 12.05945579 21.1697231 13.03515625 23.2421875 C13.34655045 23.88807831 13.65794464 24.53396912 13.97877502 25.19943237 C14.71332032 26.77263819 15.36488545 28.38409071 16 30 C15.67 30.66 15.34 31.32 15 32 C8.10098718 33.64117486 1.07409145 34.27741535 -6 34 C-5.43223344 26.3055241 -4.07139916 18.90832778 -2.4375 11.375 C-2.20353516 10.27542969 -1.96957031 9.17585937 -1.72851562 8.04296875 C-1.15712206 5.36091733 -0.58087187 2.6800116 0 0 Z " fill="#F4F8FB" transform="translate(217,168)"/>
<path d="M0 0 C2.70451774 1.40278283 3.88920637 2.63179251 6 5 C6 6.98 6 8.96 6 11 C-0.93 11 -7.86 11 -15 11 C-12.3830945 3.14928351 -8.80317234 -1.57199506 0 0 Z " fill="#0D88EA" transform="translate(219,354)"/>
<path d="M0 0 C2 1.75 2 1.75 3 4 C2.8624874 6.81900839 2.35530428 8.45769347 0.8125 10.8125 C-1.88924432 12.58260835 -3.84673574 12.39415803 -7 12 C-8.875 10.9375 -8.875 10.9375 -10 9 C-10.36841966 5.56141649 -10.58367385 3.09868019 -8.9375 0 C-5.73276125 -1.65405871 -3.38694881 -0.90721843 0 0 Z " fill="#0E8DED" transform="translate(377,177)"/>
<path d="M0 0 C2.4375 1.625 2.4375 1.625 4 4 C4 7.51359068 3.6312066 9.27528132 1.3125 11.9375 C-1.83903422 13.38550221 -3.70949263 12.929926 -7 12 C-9 10 -9 10 -9.3125 6.5625 C-9 3 -9 3 -7.875 1.0625 C-5.06487736 -0.52990283 -3.17235276 -0.45319325 0 0 Z " fill="#108FEE" transform="translate(356,176)"/>
<path d="M0 0 C3.05945433 0.82860222 4.30128857 1.17005999 6 3.8125 C6.5 6.25 6.5 6.25 6 8.8125 C3.875 11.1875 3.875 11.1875 1 12.8125 C-2.1875 12.75 -2.1875 12.75 -5 11.8125 C-7 8.8125 -7 8.8125 -6.8125 5.25 C-5.76551823 0.82046173 -4.59823225 -0.28738952 0 0 Z " fill="#0B8EEE" transform="translate(334,176.1875)"/>
</svg>
