<?xml version="1.0" encoding="UTF-8"?>
<svg version="1.1" xmlns="http://www.w3.org/2000/svg" width="1024" height="1024">
<path d="M0 0 C337.92 0 675.84 0 1024 0 C1024 337.92 1024 675.84 1024 1024 C686.08 1024 348.16 1024 0 1024 C0 686.08 0 348.16 0 0 Z " fill="#0867E8" transform="translate(0,0)"/>
<path d="M0 0 C13.3852653 13.10949914 13.14342349 32.83460431 15.1875 50.5 C15.60241933 54.04593725 16.02066768 57.59146743 16.44140625 61.13671875 C16.59230965 62.41295105 16.59230965 62.41295105 16.7462616 63.71496582 C17.42862486 69.40367963 18.26141553 75.05549691 19.16723633 80.71313477 C20.22182553 87.85340673 20.84739922 95.0504451 21.56835938 102.23046875 C21.75301758 104.02291016 21.75301758 104.02291016 21.94140625 105.8515625 C22.10298218 107.46345459 22.10298218 107.46345459 22.26782227 109.10791016 C22.55022239 111.90366327 22.55022239 111.90366327 23.625 114.8125 C23.96963828 117.39583906 24.28047455 119.9723415 24.5625 122.5625 C25.20119513 128.24113539 25.89750909 133.90286365 26.6875 139.5625 C27.30434401 144.04992248 27.75231698 148.4783449 28 153 C28.36287342 158.44969895 29.38552216 163.56084703 30.5625 168.875 C32.65744431 178.44175683 33.38761464 187.956824 33.85327148 197.72875977 C34.14640725 203.1960369 34.63837773 208.31036589 35.99609375 213.62109375 C38.59128088 224.04034185 39.42409059 234.7872474 40.625 245.4375 C41.11995271 249.78444791 41.61982469 254.1307907 42.125 258.4765625 C42.24693726 259.52806992 42.36887451 260.57957733 42.49450684 261.66294861 C43.37081631 269.06097565 44.42443131 276.4154095 45.66699219 283.76077271 C46.38033384 288.00917659 46.87210208 292.19969175 47.125 296.5 C47.39985557 301.17254476 48.17190069 305.49466498 49.1875 310.0625 C52.3115942 325.20001926 53.40199965 342.99928259 45.625 356.8125 C44.75875 358.483125 44.75875 358.483125 43.875 360.1875 C34.9230831 370.63140305 23.35891873 375.0056502 9.94921875 376.1171875 C7.47764281 376.2838106 5.00493 376.4346559 2.53125 376.56640625 C-0.31156043 376.62655057 -0.31156043 376.62655057 -2.375 377.8125 C-4.96067862 377.97189115 -7.53699267 378.09056244 -10.125 378.1875 C-15.70558508 378.44586042 -20.92129908 379.00614838 -26.375 380.3125 C-31.26258406 381.46704742 -35.79448027 382.01568462 -40.8125 382.1875 C-48.96073766 382.47932593 -56.84795079 383.80583578 -64.875 385.1875 C-76.83535926 387.24310056 -88.73895699 388.61990076 -100.831604 389.6137085 C-109.03551289 390.28975759 -117.09262419 391.11971809 -125.17700195 392.68579102 C-134.99725631 394.45852165 -145.02842578 394.97334595 -154.96826172 395.72265625 C-161.84720957 396.25291535 -168.57979077 396.87738434 -175.33007812 398.37768555 C-184.50080841 400.3276701 -194.40581136 399.92325423 -203.75 400 C-205.12236816 400.01957764 -205.12236816 400.01957764 -206.52246094 400.03955078 C-218.34704639 400.05458385 -227.8144383 397.35749153 -236.5625 389.125 C-246.31230918 378.7342671 -249.38412095 367.29183149 -250.1640625 353.30859375 C-250.28735633 350.68339945 -250.28735633 350.68339945 -251.375 347.8125 C-251.6226297 346.13063735 -251.83410223 344.44332467 -252.0234375 342.75390625 C-252.14025879 341.7378833 -252.25708008 340.72186035 -252.37744141 339.67504883 C-252.50038574 338.58603271 -252.62333008 337.4970166 -252.75 336.375 C-253.68756994 328.26437781 -254.7256483 320.18957764 -256 312.125 C-257.02377361 305.61205726 -257.68155448 299.19220809 -258.05175781 292.60473633 C-258.40707996 288.43614201 -259.04696657 284.37615997 -259.7421875 280.25390625 C-261.50035279 269.47777235 -262.76486217 258.65891033 -264 247.8125 C-264.32407382 244.97492509 -264.64935725 242.13751633 -264.97860718 239.30053711 C-265.18092807 237.55691408 -265.38031279 235.81294707 -265.57632446 234.06860352 C-265.95001105 230.84517659 -266.34570207 227.9003938 -267.375 224.8125 C-267.56555933 223.23175163 -267.71580091 221.64594741 -267.83984375 220.05859375 C-267.91783203 219.12080078 -267.99582031 218.18300781 -268.07617188 217.21679688 C-268.23153498 215.26641207 -268.38523002 213.31589355 -268.53710938 211.36523438 C-268.91622748 206.83739291 -269.38882505 202.43647502 -270.34765625 197.9921875 C-271.72174951 191.55571258 -272.25622917 185.04469148 -272.875 178.5 C-273.66357387 170.23730567 -274.60069911 162.05571538 -275.91552734 153.85961914 C-276.6004456 149.31739555 -277.02973048 144.76161031 -277.4375 140.1875 C-277.59181065 138.46585223 -277.74922424 136.74447896 -277.91015625 135.0234375 C-277.975979 134.28399902 -278.04180176 133.54456055 -278.10961914 132.78271484 C-278.34057868 130.60450234 -278.34057868 130.60450234 -279.375 127.8125 C-279.67986441 124.68763984 -279.88341216 121.56221889 -280.09375 118.4296875 C-280.08996985 115.88836139 -280.08996985 115.88836139 -281.375 114.8125 C-281.57982325 113.02976513 -281.72287262 111.23986498 -281.83984375 109.44921875 C-281.91783203 108.33353516 -281.99582031 107.21785156 -282.07617188 106.06835938 C-282.23087357 103.73249156 -282.38455908 101.39655618 -282.53710938 99.06054688 C-283.00226766 92.43109594 -283.76520251 85.9750484 -284.92700195 79.43188477 C-287.27136847 65.72468675 -289.31042829 48.4451687 -281.6875 36.1875 C-275.35830841 27.27747301 -267.88163578 23.23126239 -257.25732422 21.27905273 C-256.34740723 21.12509033 -255.43749023 20.97112793 -254.5 20.8125 C-253.52691895 20.64371338 -252.55383789 20.47492676 -251.55126953 20.30102539 C-241.12226375 18.59884022 -230.6184817 17.71898179 -220.08642578 16.93945312 C-212.59056018 16.36050072 -205.484283 15.2959212 -198.18457031 13.47436523 C-194.67494309 12.64758392 -191.41216854 12.30928337 -187.8125 12.125 C-186.57242188 12.06054688 -185.33234375 11.99609375 -184.0546875 11.9296875 C-178.82556009 11.76315478 -173.60588197 11.72483159 -168.375 11.8125 C-168.375 11.1525 -168.375 10.4925 -168.375 9.8125 C-167.53195312 9.75191406 -166.68890625 9.69132812 -165.8203125 9.62890625 C-164.72460938 9.54511719 -163.62890625 9.46132813 -162.5 9.375 C-161.40945313 9.29378906 -160.31890625 9.21257812 -159.1953125 9.12890625 C-156.42771029 8.98248297 -156.42771029 8.98248297 -154.375 7.8125 C-152.97378033 7.61722746 -151.56578593 7.46913208 -150.15625 7.34765625 C-149.3113501 7.27087646 -148.4664502 7.19409668 -147.59594727 7.11499023 C-146.24907837 6.99619507 -146.24907837 6.99619507 -144.875 6.875 C-138.72031281 6.3026602 -132.74407426 5.61816606 -126.7109375 4.2421875 C-122.88378732 3.53819666 -119.0199477 3.41462734 -115.13671875 3.25390625 C-111.77757062 2.8597383 -108.74708032 2.19460268 -105.47265625 1.37890625 C-97.74702534 -0.46541907 -90.01543278 -1.16036749 -82.125 -1.8125 C-80.01108322 -1.99255121 -77.89747729 -2.17525832 -75.78424072 -2.36312866 C-73.89931198 -2.52999415 -72.01363456 -2.68833828 -70.12792969 -2.84619141 C-67.46800845 -2.88958053 -67.46800845 -2.88958053 -66.375 -4.1875 C-64.05682911 -4.50847751 -61.73720643 -4.69970956 -59.40625 -4.90625 C-57.38319407 -4.97815837 -57.38319407 -4.97815837 -56.375 -6.1875 C-38.11476981 -9.12429135 -15.05853059 -12.62973533 0 0 Z " fill="#FDFEFE" transform="translate(538.375,299.1875)"/>
<path d="M0 0 C2.07361608 0.02149331 4.14377079 0.00002129 6.21728516 -0.02539062 C22.23072491 -0.05853449 39.94536446 3.92643155 53.57275391 12.52148438 C54.31654297 12.93527344 55.06033203 13.3490625 55.82666016 13.77539062 C60.98878766 16.70146967 65.63351697 20.00043725 70.19775391 23.77148438 C70.99741577 24.42612671 70.99741577 24.42612671 71.81323242 25.09399414 C73.1085749 26.18844894 74.34656475 27.35007343 75.57275391 28.52148438 C75.57275391 29.18148438 75.57275391 29.84148437 75.57275391 30.52148438 C76.56275391 30.85148437 77.55275391 31.18148438 78.57275391 31.52148438 C80.22119141 33.15820313 80.22119141 33.15820313 81.94775391 35.20898438 C82.56005859 35.93472656 83.17236328 36.66046875 83.80322266 37.40820312 C84.38716797 38.10558594 84.97111328 38.80296875 85.57275391 39.52148438 C86.04326172 40.04355469 86.51376953 40.565625 86.99853516 41.10351562 C92.74118986 47.557335 95.48906824 55.57905029 98.57275391 63.52148438 C98.91822266 64.32714844 99.26369141 65.1328125 99.61962891 65.96289062 C103.0467223 75.16267002 102.79807373 85.52198053 102.88525391 95.20898438 C102.90281738 96.25344727 102.92038086 97.29791016 102.93847656 98.37402344 C102.93281503 105.55510954 101.73671637 111.69584817 99.57275391 118.52148438 C99.2135282 119.8143602 98.85867022 121.10846622 98.51025391 122.40429688 C98.20087891 123.47421875 97.89150391 124.54414063 97.57275391 125.64648438 C97.26337891 126.7421875 96.95400391 127.83789062 96.63525391 128.96679688 C96.28462891 129.80984375 95.93400391 130.65289062 95.57275391 131.52148438 C94.58275391 131.85148438 93.59275391 132.18148437 92.57275391 132.52148438 C91.87695182 134.51153561 91.21501765 136.51351482 90.57275391 138.52148438 C86.8995971 144.36772291 82.69958848 149.88291976 77.57275391 154.52148438 C76.86634766 155.19695312 76.15994141 155.87242187 75.43212891 156.56835938 C69.56665274 162.06493766 63.51538 166.48637417 56.57275391 170.52148438 C55.54021484 171.13121094 54.50767578 171.7409375 53.44384766 172.36914062 C46.98202779 176.03161614 40.71737533 178.68341868 33.56494141 180.68164062 C30.96239101 181.41212148 28.47875522 182.26774011 25.94775391 183.20898438 C10.72849037 188.24557519 -11.08826893 187.05329693 -26.23974609 182.33398438 C-34.87620718 180.13253351 -43.57979103 183.9758267 -51.67724609 186.77148438 C-52.81548828 187.15433594 -53.95373047 187.5371875 -55.12646484 187.93164062 C-68.13272287 192.16706319 -68.13272287 192.16706319 -80.62353516 197.65917969 C-82.96376596 198.77797979 -84.86819777 198.66365373 -87.42724609 198.52148438 C-86.8459892 191.04369301 -85.13663686 184.21349383 -83.05224609 177.02148438 C-82.74802734 175.94511719 -82.44380859 174.86875 -82.13037109 173.75976562 C-80.77217084 168.99445617 -79.36417053 164.28316247 -77.70068359 159.61523438 C-76.5273067 156.1185474 -75.9090462 153.2397022 -76.42724609 149.52148438 C-77.67213026 147.16801393 -77.67213026 147.16801393 -79.48974609 145.02148438 C-88.90983235 132.32153003 -95.56938447 116.88273661 -95.59521484 100.94726562 C-95.59854324 100.22339157 -95.60187164 99.49951752 -95.6053009 98.75370789 C-95.6103482 97.22489046 -95.61270991 95.69606208 -95.61254883 94.16723633 C-95.61472282 91.8586956 -95.632867 89.55064306 -95.65185547 87.2421875 C-95.69735048 76.11862039 -95.02177018 66.5366288 -89.73974609 56.58398438 C-89.21018311 55.55930054 -89.21018311 55.55930054 -88.66992188 54.51391602 C-81.4618354 40.77400554 -73.59479406 31.10320701 -61.42724609 21.52148438 C-60.57904297 20.83054687 -59.73083984 20.13960938 -58.85693359 19.42773438 C-52.72028875 14.61313199 -45.87982463 11.10772848 -38.80224609 7.89648438 C-38.2127417 7.61957764 -37.6232373 7.3426709 -37.01586914 7.05737305 C-25.13033858 1.83552833 -12.882973 -0.15788701 0 0 Z " fill="#FCFDFD" transform="translate(706.42724609375,367.478515625)"/>
<path d="M0 0 C1.92588904 5.97477849 2.6356521 12.07977707 3.3671875 18.296875 C3.48677826 19.27563095 3.60636902 20.2543869 3.72958374 21.26280212 C3.98410004 23.34799528 4.23649939 25.43344775 4.48693848 27.51913452 C5.13958645 32.95285487 5.80734171 38.38470542 6.4765625 43.81640625 C6.60760376 44.88151932 6.73864502 45.94663239 6.87365723 47.04402161 C7.8935329 55.27578951 9.02885189 63.48328164 10.25 71.6875 C11.52531582 80.29524286 12.59427197 88.8846312 13.31738281 97.55737305 C14.22465341 108.3759933 15.74277244 119.13258918 17.18359375 129.890625 C17.28579224 130.65465637 17.38799072 131.41868774 17.49328613 132.20587158 C18.11731717 136.86896255 18.11731717 136.86896255 18.74731445 141.53125 C20.12332742 151.67920987 21.31841624 161.83363958 22.37890625 172.01953125 C24.06131732 188.09629523 26.12086734 204.11913605 28.20318604 220.14788818 C28.60068234 223.21415981 28.99484224 226.28085651 29.38898373 229.34756088 C32.07823414 250.43334458 32.07823414 250.43334458 35.12402344 271.46983337 C35.9190998 276.77337058 36.26038428 282.01753828 36.4375 287.375 C37.31597732 307.78190533 40.23216299 329.38872805 56 344 C58.78548333 346.46895114 60.48254323 347.82751441 64 349 C64 349.66 64 350.32 64 351 C64.7425 351.103125 65.485 351.20625 66.25 351.3125 C69 352 69 352 70.765625 353.34375 C85.97152971 364.61525979 107.38598027 362.35309158 125.125 360.1875 C126.96979259 359.9055448 128.81452736 359.6231523 130.65820312 359.33398438 C137.21256734 358.39920849 143.81399712 357.77145461 150.39501953 357.0534668 C152.02093018 356.87037964 152.02093018 356.87037964 153.6796875 356.68359375 C155.14510986 356.52201782 155.14510986 356.52201782 156.64013672 356.35717773 C159.01268695 356.12212556 159.01268695 356.12212556 161 355 C162.59262066 354.84824451 164.19064856 354.75099675 165.7890625 354.68359375 C166.73007812 354.64169922 167.67109375 354.59980469 168.640625 354.55664062 C169.62546875 354.51732422 170.6103125 354.47800781 171.625 354.4375 C172.61757813 354.39431641 173.61015625 354.35113281 174.6328125 354.30664062 C177.08839838 354.20038931 179.54408703 354.09835036 182 354 C182 353.34 182 352.68 182 352 C182.61294922 351.9498877 183.22589844 351.89977539 183.85742188 351.84814453 C204.02801104 352.04322954 204.02801104 352.04322954 222 347 C224.27559218 346.71158719 226.5589107 346.48376205 228.84375 346.28125 C229.52804077 346.21844849 230.21233154 346.15564697 230.9173584 346.09094238 C233.85594169 345.82139216 236.79543081 345.56234444 239.73486328 345.30224609 C241.87566714 345.1113313 244.01594622 344.91517866 246.15625 344.71875 C248.08694336 344.54762695 248.08694336 344.54762695 250.05664062 344.37304688 C252.8841785 344.32001691 252.8841785 344.32001691 254 343 C262.68918769 341.03750887 271.6076977 340.40235536 280.46676636 339.68109131 C284.23398835 339.3738905 287.99981791 339.05058615 291.765625 338.7265625 C292.85719154 338.63291916 292.85719154 338.63291916 293.97080994 338.53738403 C300.56486824 337.96481788 307.12612509 337.23190712 313.69140625 336.3984375 C317.75242246 335.9093895 321.81637315 335.5965094 325.8984375 335.34375 C328.29773703 335.09986794 328.29773703 335.09986794 331 333 C332.90522135 332.62396947 334.82503875 332.31899864 336.75 332.0625 C348.25449972 330.24164393 357.98433255 324.31561023 365.40625 315.30078125 C372.6894824 304.78650703 377.12042651 292.96254941 377.1328125 280.17578125 C377.13474609 278.26249023 377.13474609 278.26249023 377.13671875 276.31054688 C377.13285156 274.99119141 377.12898438 273.67183594 377.125 272.3125 C377.12856476 270.96809801 377.13246794 269.62369687 377.13671875 268.27929688 C377.13542969 267.00763672 377.13414062 265.73597656 377.1328125 264.42578125 C377.13168457 263.26473877 377.13055664 262.10369629 377.12939453 260.9074707 C377.12995628 257.9336414 377.12995628 257.9336414 376 255 C374.81535559 245.36196708 374.88805171 235.68974636 375 226 C378.1257396 226.10962816 381.25024781 226.24031241 384.375 226.375 C385.26445313 226.4059375 386.15390625 226.436875 387.0703125 226.46875 C388.34648438 226.52675781 388.34648438 226.52675781 389.6484375 226.5859375 C390.43395996 226.6173584 391.21948242 226.6487793 392.02880859 226.68115234 C394 227 394 227 396 229 C396.27174377 231.46450806 396.27174377 231.46450806 396.30297852 234.60791016 C396.31962051 235.78318268 396.33626251 236.9584552 396.35340881 238.16934204 C396.36603004 240.08485367 396.36603004 240.08485367 396.37890625 242.0390625 C396.40487635 244.04087627 396.43085092 246.04269 396.4570837 248.04450035 C396.49154144 250.85786473 396.51706799 253.67128383 396.54260254 256.48474121 C396.58813386 261.38229157 396.64392636 266.27971804 396.70530701 271.17709351 C396.73707987 273.78366547 396.7640259 276.39030192 396.78553772 278.99697876 C396.85443007 285.0956619 397.13616743 290.96530916 398 297 C399.30474295 316.68101727 398.52519556 331.7106299 386.07421875 347.6953125 C383.04534782 351.06072464 379.82372306 353.60141201 376 356 C374.9275 356.721875 373.855 357.44375 372.75 358.1875 C362.86165087 363.51533445 351.65772091 363.45326048 340.7265625 363.4765625 C339.18865627 363.49091193 337.65076266 363.50667584 336.11288452 363.52377319 C332.10075372 363.56525808 328.08870127 363.59049728 324.07641602 363.61126709 C317.63572649 363.64734804 311.19523023 363.70833778 304.75474167 363.76975632 C302.51802352 363.78871114 300.28135741 363.80053138 298.04458618 363.81118774 C296.66855763 363.82140357 295.29253014 363.83176179 293.91650391 363.84228516 C292.72247955 363.84878082 291.5284552 363.85527649 290.29824829 363.86196899 C287.11208556 363.99530924 284.13805352 364.45861969 281 365 C279.20851241 365.09763517 277.414407 365.15459666 275.62036133 365.17358398 C274.58228333 365.18715942 273.54420532 365.20073486 272.47467041 365.21472168 C270.79531403 365.23025085 270.79531403 365.23025085 269.08203125 365.24609375 C266.63028664 365.2776754 264.17854522 365.30950594 261.72680664 365.34155273 C260.43678741 365.35693085 259.14676819 365.37230896 257.81765747 365.38815308 C222.69217392 365.81188105 187.51406473 366.48674711 152.48388672 369.24755859 C137.03991208 370.39968861 121.54619157 370.78224655 106.07080078 371.30273438 C104.9406102 371.3419249 103.81041962 371.38111542 102.64598083 371.42149353 C100.51300293 371.49517205 98.37991683 371.5658064 96.24671936 371.63282776 C90.76423773 371.82306872 85.43596247 372.27633931 80 373 C49.77674991 374.88731069 49.77674991 374.88731069 38.1875 365.79296875 C25.94431418 354.49293533 21.40600327 337.69379596 20.25 321.4375 C20.19585937 319.91962891 20.19585937 319.91962891 20.140625 318.37109375 C20.1549774 315.9820586 20.1549774 315.9820586 19 314 C18.86584528 311.3276379 18.95681459 308.67749512 19 306 C18.34 306 17.68 306 17 306 C16.9498877 305.21463867 16.89977539 304.42927734 16.84814453 303.62011719 C16.61333716 299.99630998 16.36921868 296.37318465 16.125 292.75 C16.04636719 291.51507812 15.96773437 290.28015625 15.88671875 289.0078125 C15.96688282 276.25089548 15.96688282 276.25089548 12 265 C11.59022573 262.52972823 11.23546842 260.07202417 10.9140625 257.58984375 C10.76038712 256.45029991 10.76038712 256.45029991 10.60360718 255.28773499 C10.16538046 252.03696231 9.73685475 248.78492878 9.30761719 245.53295898 C8.02647675 235.87185116 6.5562001 226.30385164 4.70068359 216.73608398 C3.63151249 211.03520406 2.81100909 205.30485676 2 199.5625 C0.96360037 192.25061276 -0.16369417 184.96992198 -1.4765625 177.703125 C-3.0017658 169.22565487 -4.22133346 160.72233478 -5.375 152.1875 C-5.58663348 150.64187748 -5.79863755 149.09630566 -6.01098633 147.55078125 C-6.45204408 144.33793402 -6.89152835 141.12487821 -7.32958984 137.91162109 C-8.33348764 130.55111071 -9.34720812 123.19196457 -10.36529541 115.83340454 C-10.67850104 113.56517046 -10.98950129 111.29664208 -11.30029297 109.02807617 C-12.13695292 102.95443451 -12.99669221 96.89298492 -14.046875 90.8515625 C-15.38772985 83.00779497 -16.12618787 75.09939644 -16.94335938 67.1875 C-17.12801758 65.45113281 -17.12801758 65.45113281 -17.31640625 63.6796875 C-17.42412354 62.63538574 -17.53184082 61.59108398 -17.64282227 60.51513672 C-17.86305061 58.0097203 -17.86305061 58.0097203 -19 56 C-20.12629058 48.0425122 -20.27183137 39.96120591 -20.375 31.9375 C-20.41238281 30.83083984 -20.44976562 29.72417969 -20.48828125 28.58398438 C-20.59035735 18.98315992 -18.12016517 12.07674534 -11.5 5.0625 C-4.39979757 -1.46659919 -4.39979757 -1.46659919 0 0 Z " fill="#82D4FC" transform="translate(232,361)"/>
<path d="M0 0 C10.04565653 9.04347702 15.63947738 24.34206281 21.51953125 36.29296875 C24.35257477 42.03149157 27.43802667 47.62303981 30.51953125 53.23046875 C35.1037286 61.58000574 39.50138085 69.98883652 43.69140625 78.54199219 C45.40686531 82.03091251 47.15292044 85.50455119 48.89453125 88.98046875 C49.52486757 90.24082142 50.15508043 91.50123584 50.78515625 92.76171875 C51.73569069 94.66303916 52.68646267 96.56423885 53.63793945 98.46508789 C55.25430941 101.69509416 56.86698592 104.92678566 58.46875 108.1640625 C62.2902189 115.87232454 66.22473938 123.50798781 70.2746582 131.09863281 C74.2058339 138.48948143 77.93131261 145.97842294 81.64453125 153.48046875 C82.20398438 154.53878906 82.7634375 155.59710937 83.33984375 156.6875 C85.11507485 160.48777017 85.47326105 163.37784597 84.64453125 167.48046875 C81.55664094 173.01737551 77.63749401 174.86996862 71.6875 176.7890625 C64.03461657 178.52790764 56.44217776 178.64229314 49.64453125 174.48046875 C45.9738005 170.47919827 43.50812835 166.65834573 41.14453125 161.73046875 C40.85046387 161.12501221 40.55639648 160.51955566 40.25341797 159.89575195 C39.37807511 158.09342149 38.51118762 156.2869922 37.64453125 154.48046875 C36.69059566 152.54079973 35.73286441 150.60298768 34.76953125 148.66796875 C34.18558594 147.48267578 34.18558594 147.48267578 33.58984375 146.2734375 C32.77347732 144.51084371 32.77347732 144.51084371 31.64453125 143.48046875 C28.71317816 143.51967409 25.81935443 143.62587571 22.89453125 143.79296875 C22.02634766 143.84074463 21.15816406 143.88852051 20.26367188 143.93774414 C14.4634693 144.28977645 8.80715384 144.9600655 3.078125 145.9453125 C-1.20014446 146.612119 -5.48559624 147.0490521 -9.79296875 147.48046875 C-15.65255847 148.08324951 -21.51036789 148.68657557 -27.35546875 149.41796875 C-28.44859375 149.55074219 -29.54171875 149.68351563 -30.66796875 149.8203125 C-33.65259577 150.55345489 -34.63149758 150.96747003 -36.35546875 153.48046875 C-37.45776191 156.30954833 -37.45776191 156.30954833 -38.29296875 159.60546875 C-38.63199219 160.84683594 -38.97101563 162.08820313 -39.3203125 163.3671875 C-40.0540641 166.21314972 -40.72281248 169.06830176 -41.359375 171.9375 C-41.52638916 172.68306152 -41.69340332 173.42862305 -41.86547852 174.19677734 C-42.18354295 175.63860604 -42.49068504 177.08290389 -42.78491211 178.52978516 C-44.03220139 184.24202834 -45.85348783 189.34863107 -50.44140625 193.2578125 C-57.6329837 196.90269049 -64.37332642 197.55003621 -72.35546875 196.48046875 C-75.98046875 194.79296875 -75.98046875 194.79296875 -78.35546875 192.48046875 C-79.13921875 191.79984375 -79.92296875 191.11921875 -80.73046875 190.41796875 C-83.49277704 185.4245653 -83.24495564 179.79200441 -81.77734375 174.328125 C-81.27124484 172.92558494 -80.74942651 171.52865122 -80.21484375 170.13671875 C-78.85429132 165.93137488 -78.18093032 161.58934083 -77.44604492 157.23950195 C-76.73895575 153.15582397 -75.69352353 149.39571076 -74.35546875 145.48046875 C-73.82467541 143.21663517 -73.32572777 140.94514693 -72.85546875 138.66796875 C-72.60023438 137.45109375 -72.345 136.23421875 -72.08203125 134.98046875 C-71.84226562 133.82546875 -71.6025 132.67046875 -71.35546875 131.48046875 C-69.50323507 122.62823507 -69.50323507 122.62823507 -68.35546875 121.48046875 C-67.85694059 119.06591067 -67.40487213 116.6582117 -66.98046875 114.23046875 C-65.22269674 104.52299594 -63.11243777 94.95754974 -60.35546875 85.48046875 C-57.90797645 76.53231218 -56.06826051 67.46544017 -54.24487305 58.37329102 C-53.04630125 52.47955118 -51.66002833 46.69061734 -50.00927734 40.90649414 C-49.38948344 38.60668382 -48.90638154 36.3229891 -48.48046875 33.98046875 C-47.48803927 28.85291643 -46.25770351 23.79320788 -44.98046875 18.73046875 C-44.78340332 17.91384766 -44.58633789 17.09722656 -44.38330078 16.25585938 C-42.74589746 9.8938245 -40.70787836 5.14099318 -35.16796875 1.23046875 C-25.85538193 -3.46495317 -9.21809867 -5.88432007 0 0 Z " fill="#086CE9" transform="translate(425.35546875,384.51953125)"/>
<path d="M0 0 C1.3921875 1.0828125 1.3921875 1.0828125 2.8125 2.1875 C5.35532565 5.45684726 5.63981222 7.04998749 5.3515625 11.0703125 C4.81547431 14.012841 3.98182702 15.75392938 2 18 C-3.60529748 20.42713044 -9.61709123 20.85103712 -15.625 21.5625 C-17.67994348 21.81170024 -19.73464311 22.06292169 -21.7890625 22.31640625 C-22.69350098 22.42412354 -23.59793945 22.53184082 -24.52978516 22.64282227 C-26.9533829 22.9501834 -26.9533829 22.9501834 -29.09790039 23.52734375 C-32.91237634 24.47520993 -36.97207342 24.3666479 -40.89257812 24.51757812 C-44.26356182 24.68660569 -47.08311677 25.02402443 -50.3515625 25.96875 C-55.06825775 27.30194866 -59.69015194 27.66818612 -64.5625 28.0625 C-71.4618751 28.62234688 -71.4618751 28.62234688 -78.31640625 29.5546875 C-81.05587847 30.00927241 -83.60150306 30.09997969 -86.375 30.0625 C-87.68597656 30.04896484 -87.68597656 30.04896484 -89.0234375 30.03515625 C-89.67570313 30.02355469 -90.32796875 30.01195312 -91 30 C-91 30.66 -91 31.32 -91 32 C-91.77077881 32.0501123 -92.54155762 32.10022461 -93.33569336 32.15185547 C-96.87014487 32.38573545 -100.40378261 32.63028779 -103.9375 32.875 C-105.14986328 32.95363281 -106.36222656 33.03226563 -107.61132812 33.11328125 C-113.58189585 33.53397166 -119.27767682 34.11599614 -125.08911133 35.55859375 C-127.83586748 36.19308144 -130.56586096 36.38923289 -133.375 36.5625 C-136.54925932 36.7634544 -138.97112573 36.99037524 -142 38 C-143.96641481 38.20517253 -145.9376285 38.36577164 -147.91015625 38.5 C-149.06451172 38.5825 -150.21886719 38.665 -151.40820312 38.75 C-153.84828911 38.91693266 -156.28839336 39.08359848 -158.72851562 39.25 C-159.88158203 39.3325 -161.03464844 39.415 -162.22265625 39.5 C-163.81219116 39.60828125 -163.81219116 39.60828125 -165.43383789 39.71875 C-167.9856281 39.8481864 -167.9856281 39.8481864 -170 41 C-171.48321143 41.20698481 -172.97319587 41.36678795 -174.46484375 41.5 C-175.34720703 41.5825 -176.22957031 41.665 -177.13867188 41.75 C-178.06228516 41.8325 -178.98589844 41.915 -179.9375 42 C-181.75940847 42.16342276 -183.58104109 42.32995861 -185.40234375 42.5 C-186.61651978 42.60828125 -186.61651978 42.60828125 -187.85522461 42.71875 C-190.18055037 42.95451894 -190.18055037 42.95451894 -193 44 C-196.38540224 44.30698862 -199.77135062 44.50904595 -203.1640625 44.71875 C-205.89869363 44.68740332 -205.89869363 44.68740332 -207 46 C-209.74677215 46.20831425 -212.43721597 46.32470387 -215.1875 46.375 C-216.32155273 46.43107422 -216.32155273 46.43107422 -217.47851562 46.48828125 C-221.57591159 46.55224754 -224.18776011 46.28743124 -227.43359375 43.66015625 C-230.98892012 39.97495494 -232.69025755 36.9358903 -233.5 31.875 C-233 29 -233 29 -230.9375 26.75 C-225.3010951 23.39214176 -219.22089186 22.63832297 -212.78515625 22.03515625 C-212.011754 21.95631699 -211.23835175 21.87747772 -210.44151306 21.79624939 C-207.1721396 21.46306758 -203.9014142 21.1442775 -200.63061523 20.82543945 C-192.33838677 20.0093842 -184.15408094 19.11547454 -175.9765625 17.4921875 C-167.94782663 15.90363013 -159.92920184 15.04946249 -151.78491211 14.29321289 C-135.63760531 12.78642856 -119.61136098 10.81344696 -103.55859375 8.50439453 C-97.21151136 7.60476005 -90.85680443 6.76529123 -84.5 5.9375 C-83.21931641 5.77064697 -81.93863281 5.60379395 -80.61914062 5.43188477 C-71.59267644 4.27851589 -62.55613721 3.32398765 -53.5 2.4375 C-44.82721387 1.58812128 -36.38223305 0.50955615 -27.875 -1.37109375 C-19.56849344 -3.18814206 -6.9232133 -5.9050937 0 0 Z " fill="#0C68EC" transform="translate(557,629)"/>
<path d="M0 0 C2.02723406 0.9838631 3.90540122 2.07589473 5.80859375 3.28125 C6.42734375 3.631875 7.04609375 3.9825 7.68359375 4.34375 C15.59713879 9.25560554 18.39049941 17.80470005 20.96850586 26.37109375 C22.42417302 33.14643967 22.36342882 39.89022586 22.27514648 46.79541016 C22.24580835 49.30566932 22.25465822 51.81385615 22.26757812 54.32421875 C22.26134949 55.93490603 22.25296543 57.54558674 22.2421875 59.15625 C22.24512314 59.8989917 22.24805878 60.6417334 22.25108337 61.40698242 C22.16954989 65.89647045 21.43834208 68.64544276 18.80859375 72.28125 C18.21742534 73.53900336 17.65024333 74.80867244 17.12109375 76.09375 C16.68796875 77.145625 16.25484375 78.1975 15.80859375 79.28125 C15.14859375 79.28125 14.48859375 79.28125 13.80859375 79.28125 C13.65003906 79.94769531 13.49148438 80.61414063 13.328125 81.30078125 C12.05129213 86.3446238 10.59151827 90.97315106 8.30859375 95.65625 C5.43938241 101.64605373 4.07817984 107.7888138 2.80859375 114.28125 C0.82859375 114.77625 0.82859375 114.77625 -1.19140625 115.28125 C-1.23628174 114.60247803 -1.28115723 113.92370605 -1.32739258 113.22436523 C-2.1255071 101.48124811 -2.96523314 89.99971157 -5.52734375 78.49609375 C-7.31151058 69.85862726 -7.34707621 61.06795418 -7.19140625 52.28125 C-7.85140625 52.28125 -8.51140625 52.28125 -9.19140625 52.28125 C-9.23628174 51.61818848 -9.28115723 50.95512695 -9.32739258 50.27197266 C-10.54141837 32.64932123 -10.54141837 32.64932123 -13.22583008 15.20556641 C-14.1882767 10.16865927 -14.33753202 5.3823679 -14.19140625 0.28125 C-9.98092406 -1.8239911 -4.39964371 -1.4430204 0 0 Z " fill="#8FD8FB" transform="translate(586.19140625,327.71875)"/>
<path d="M0 0 C4.76860227 2.91414583 6.01629582 6.00832751 7.8359375 11.0234375 C9.18133808 14.46369 10.81235986 17.71958575 12.5 21 C14.49205286 24.89778863 16.38536933 28.77737503 17.9375 32.875 C20.20700016 38.80910432 23.12584426 44.41250334 26 50.0703125 C26.32524658 50.71121826 26.65049316 51.35212402 26.9855957 52.01245117 C27.69432554 53.40108405 28.40953936 54.78641824 29.12963867 56.16918945 C29.4929126 56.87519287 29.85618652 57.58119629 30.23046875 58.30859375 C30.56199951 58.94595459 30.89353027 59.58331543 31.23510742 60.23999023 C32.25370864 62.58378091 32.38099928 64.48540474 32 67 C29.77566859 69.22433141 25.02687317 68.99394542 21.9375 69.4375 C21.03805664 69.56874268 20.13861328 69.69998535 19.21191406 69.83520508 C16.47556122 70.23056889 13.73815768 70.6173491 11 71 C10.21318848 71.11021484 9.42637695 71.22042969 8.61572266 71.33398438 C6.49481864 71.62678009 4.37293009 71.90981282 2.25 72.1875 C0.43242187 72.42533203 0.43242187 72.42533203 -1.421875 72.66796875 C-5.3352113 73.03110585 -9.0720506 73.1232798 -13 73 C-13.33 72.67 -13.66 72.34 -14 72 C-13.76432693 61.32219686 -11.96776386 50.76044996 -8.71484375 40.61328125 C-7.909131 37.66780677 -7.47584242 34.77508127 -7.0625 31.75 C-6.22555019 25.72821704 -4.63768799 20.13090022 -2.8828125 14.3203125 C-1.85770878 10.46483392 -1.40265933 6.76657633 -1.17578125 2.79296875 C-1 1 -1 1 0 0 Z " fill="#F9FCFE" transform="translate(410,430)"/>
<path d="M0 0 C3.92128849 2.16346951 6.01680408 4.19405917 7.875 8.375 C8.52458116 13.02659839 8.47423426 16.9667995 6.625 21.3125 C4.83505731 23.42207532 3.20649919 24.8913187 0.875 26.375 C0.2975 26.766875 -0.28 27.15875 -0.875 27.5625 C-5.53840194 29.24650626 -9.75920366 28.79524503 -14.375 27.375 C-18.75387826 24.19036127 -20.5722562 20.38667886 -21.54296875 15.09765625 C-21.86258987 10.04418722 -20.83564333 6.72862613 -17.61328125 2.81640625 C-12.28736846 -2.34176125 -6.5631046 -2.90478148 0 0 Z " fill="#1062E9" transform="translate(760.125,446.625)"/>
<path d="M0 0 C4.44166901 2.56887573 7.66719652 5.30633834 9.78125 10.0859375 C10.10539751 14.70711736 9.15533788 18.27790767 7.21875 22.4609375 C3.16148713 26.83029751 -1.06512527 27.90342693 -6.90625 28.3984375 C-11.10540109 28.00229117 -13.74263402 27.7491095 -16.63671875 24.48828125 C-19.6917437 20.18386234 -20.96943501 16.55007975 -20.640625 11.26171875 C-19.73460139 6.58898589 -17.61903965 3.32619404 -14.03125 0.1484375 C-9.24956678 -1.65797616 -4.7924944 -1.97437269 0 0 Z " fill="#0F67EB" transform="translate(715.21875,445.9140625)"/>
<path d="M0 0 C4.06102115 2.25963434 6.42490841 4.39360116 8.875 8.375 C9.78400738 14.73805164 8.62605413 18.20462809 4.875 23.375 C-0.22287408 27.19840556 -4.82721463 27.80933003 -11.125 27.375 C-15.32355143 25.76017253 -17.84840578 24.26091082 -20.125 20.375 C-20.88584684 15.11247605 -21.37153267 9.13517949 -19.140625 4.1953125 C-13.98895286 -2.19657701 -7.40602368 -3.3536711 0 0 Z " fill="#0D6AEA" transform="translate(672.125,446.625)"/>
<path d="M0 0 C3.1257396 0.10962816 6.25024781 0.24031241 9.375 0.375 C10.26445313 0.4059375 11.15390625 0.436875 12.0703125 0.46875 C12.92109375 0.50742187 13.771875 0.54609375 14.6484375 0.5859375 C15.43395996 0.6173584 16.21948242 0.6487793 17.02880859 0.68115234 C19 1 19 1 21 3 C21.27174377 5.46450806 21.27174377 5.46450806 21.30297852 8.60791016 C21.31962051 9.78318268 21.33626251 10.9584552 21.35340881 12.16934204 C21.36182297 13.44634979 21.37023712 14.72335754 21.37890625 16.0390625 C21.40487635 18.04087627 21.43085092 20.04269 21.4570837 22.04450035 C21.49154144 24.85786473 21.51706799 27.67128383 21.54260254 30.48474121 C21.58813386 35.38229157 21.64392636 40.27971804 21.70530701 45.17709351 C21.73707987 47.78366547 21.7640259 50.39030192 21.78553772 52.99697876 C21.85445975 59.09828968 22.1659058 64.960494 23 71 C23.07468938 73.22815286 23.10837442 75.45812143 23.09765625 77.6875 C23.09443359 78.87988281 23.09121094 80.07226562 23.08789062 81.30078125 C23.07951172 82.52152344 23.07113281 83.74226562 23.0625 85 C23.05798828 86.25167969 23.05347656 87.50335937 23.04882812 88.79296875 C23.03711415 91.86202941 23.02071073 94.93098907 23 98 C22.67 98 22.34 98 22 98 C21.94465088 97.21874756 21.88930176 96.43749512 21.83227539 95.63256836 C21.57824061 92.06735808 21.32040429 88.50243237 21.0625 84.9375 C20.97548828 83.70837891 20.88847656 82.47925781 20.79882812 81.21289062 C20.71181641 80.01728516 20.62480469 78.82167969 20.53515625 77.58984375 C20.456604 76.49534912 20.37805176 75.40085449 20.29711914 74.27319336 C20.04735279 71.02835426 20.04735279 71.02835426 19.47265625 67.96484375 C18.75814477 61.97121443 18.87836843 56.00295196 18.90234375 49.97265625 C18.9042116 48.61502637 18.90563377 47.25739581 18.90663147 45.89976501 C18.91042778 42.34717916 18.92023304 38.79463496 18.93133545 35.24206543 C18.94161199 31.60864831 18.9461424 27.97522438 18.95117188 24.34179688 C18.96185823 17.22784603 18.97943128 10.11393014 19 3 C13.39 3 7.78 3 2 3 C2.30837202 7.08368379 2.62151946 11.16690399 2.9375 15.25 C3.02451172 16.40886719 3.11152344 17.56773437 3.20117188 18.76171875 C3.28818359 19.87675781 3.37519531 20.99179687 3.46484375 22.140625 C3.543396 23.16704102 3.62194824 24.19345703 3.70288086 25.25097656 C3.91546974 27.88577526 3.91546974 27.88577526 4.52075195 29.92626953 C5.67618555 34.92588899 5.22651094 40.30433196 5.24023438 45.42431641 C5.2498761 47.59707878 5.28089226 49.76886815 5.3125 51.94140625 C5.43507513 67.7558681 5.43507513 67.7558681 2 74 C0.515 74.495 0.515 74.495 -1 75 C-0.51928574 71.79523829 0.06050746 68.80605403 1.02734375 65.70703125 C2.64295901 59.31666962 2.24902601 52.73192477 2.1875 46.1875 C2.18604067 44.85221418 2.1853835 43.51692723 2.18554688 42.18164062 C2.31077694 35.48462039 2.31077694 35.48462039 1 29 C-0.18464441 19.36196708 -0.11194829 9.68974636 0 0 Z " fill="#4FABF5" transform="translate(607,587)"/>
<path d="M0 0 C2.12090013 0.0018721 4.2418007 0.00329224 6.36270142 0.00428772 C11.86319233 0.00805067 17.36365555 0.01782536 22.86413574 0.0289917 C28.50968044 0.03934204 34.15522974 0.04381409 39.80078125 0.04882812 C50.8177203 0.05945524 61.83463907 0.07645377 72.8515625 0.09765625 C72.8515625 0.42765625 72.8515625 0.75765625 72.8515625 1.09765625 C72.21312912 1.1057431 71.57469574 1.11382996 70.91691589 1.12216187 C6.66603149 1.9031969 6.66603149 1.9031969 -57.47509766 5.48364258 C-69.69005204 6.39137298 -81.90792144 6.29014047 -94.1484375 6.09765625 C-91.37106362 4.54716182 -89.2752112 3.83262272 -86.10180664 3.70288086 C-84.9252224 3.64788673 -84.9252224 3.64788673 -83.72486877 3.59178162 C-82.46693764 3.54634972 -82.46693764 3.54634972 -81.18359375 3.5 C-80.31327011 3.46080948 -79.44294647 3.42161896 -78.54624939 3.38124084 C-75.76810446 3.25735032 -72.98964864 3.14555428 -70.2109375 3.03515625 C-67.43591838 2.9194001 -64.66105965 2.80102669 -61.88633728 2.67835999 C-60.16139804 2.60266567 -58.43626562 2.53122172 -56.71095276 2.46458435 C-55.52964027 2.41431847 -55.52964027 2.41431847 -54.32446289 2.36303711 C-53.63703506 2.33576035 -52.94960724 2.30848358 -52.24134827 2.28038025 C-50.12514474 2.14255489 -50.12514474 2.14255489 -48.00404358 1.61584473 C-43.78296389 0.84987253 -39.56408673 0.72242939 -35.28271484 0.54125977 C-34.31259146 0.49907853 -33.34246807 0.4568973 -32.34294701 0.41343784 C-21.56164754 -0.01843637 -10.78815534 -0.02861822 0 0 Z " fill="#4AB0FA" transform="translate(440.1484375,724.90234375)"/>
<path d="M0 0 C0.66411896 -0.00014603 1.32823792 -0.00029205 2.01248169 -0.0004425 C4.18755464 0.00024905 6.36253983 0.00800566 8.53759766 0.01586914 C10.05359856 0.01773601 11.56960008 0.01915865 13.08560181 0.02015686 C17.06070646 0.02396083 21.03577414 0.03377286 25.01086426 0.04486084 C29.07315572 0.05512069 33.1354532 0.05966425 37.19775391 0.06469727 C45.15740623 0.07539717 53.11702858 0.09244793 61.07666016 0.11352539 C58.38214111 3.06896973 58.38214111 3.06896973 55.6328125 3.4699707 C54.6526416 3.460625 53.6724707 3.4512793 52.66259766 3.44165039 C51.52773926 3.43713867 50.39288086 3.43262695 49.22363281 3.42797852 C47.97888184 3.40670898 46.73413086 3.38543945 45.45166016 3.36352539 C44.16179199 3.35256836 42.87192383 3.34161133 41.54296875 3.33032227 C23.38517154 3.15519013 5.22763982 2.62034021 -12.92333984 2.11352539 C-12.92333984 1.78352539 -12.92333984 1.45352539 -12.92333984 1.11352539 C-8.55800541 0.27540712 -4.44226414 -0.008257 0 0 Z " fill="#2680F4" transform="translate(525.92333984375,723.886474609375)"/>
<path d="M0 0 C-2.33888583 2.33888583 -3.71853693 2.35105766 -6.90307617 2.72119141 C-9.15356513 3.02041814 -11.33245298 3.47886141 -13.55078125 3.9609375 C-19.07401226 5.07954096 -24.57540904 5.66305657 -30.1875 6.125 C-31.18402588 6.20991699 -32.18055176 6.29483398 -33.20727539 6.38232422 C-41.15918713 7.01981113 -49.0261094 7.2267457 -57 7 C-57 6.67 -57 6.34 -57 6 C-56.18732666 5.91435791 -55.37465332 5.82871582 -54.53735352 5.74047852 C-50.87857159 5.35235044 -47.22054426 4.95751734 -43.5625 4.5625 C-42.28310547 4.42779297 -41.00371094 4.29308594 -39.68554688 4.15429688 C-38.47060547 4.02216797 -37.25566406 3.89003906 -36.00390625 3.75390625 C-34.31503296 3.57323608 -34.31503296 3.57323608 -32.59204102 3.38891602 C-30.07580128 3.27392052 -30.07580128 3.27392052 -29 2 C-27.62166168 1.77331922 -26.23349022 1.60563726 -24.84375 1.46484375 C-23.55597656 1.33432617 -23.55597656 1.33432617 -22.2421875 1.20117188 C-21.33726562 1.11416016 -20.43234375 1.02714844 -19.5 0.9375 C-18.62601562 0.84662109 -17.75203125 0.75574219 -16.8515625 0.66210938 C-11.20542064 0.10503455 -5.67303319 -0.08647916 0 0 Z " fill="#4FADFB" transform="translate(483,706)"/>
<path d="M0 0 C1.29550781 -0.03867187 1.29550781 -0.03867187 2.6171875 -0.078125 C5.57524649 0.30891076 6.91701784 1.29875995 9.125 3.25 C8.43792969 3.22679687 7.75085938 3.20359375 7.04296875 3.1796875 C6.14191406 3.16164063 5.24085938 3.14359375 4.3125 3.125 C3.41917969 3.10179687 2.52585937 3.07859375 1.60546875 3.0546875 C-1.12902714 3.06714173 -1.12902714 3.06714173 -3.875 5.25 C-4.28980107 7.27887311 -4.28980107 7.27887311 -4.16796875 9.6015625 C-4.15830078 10.45234375 -4.14863281 11.303125 -4.13867188 12.1796875 C-4.11353516 13.06914062 -4.08839844 13.95859375 -4.0625 14.875 C-4.04896484 15.7721875 -4.03542969 16.669375 -4.02148438 17.59375 C-3.98606925 19.81309789 -3.93668461 22.03125188 -3.875 24.25 C-4.205 24.25 -4.535 24.25 -4.875 24.25 C-6.10607719 16.52279225 -7.1450558 9.0816181 -6.875 1.25 C-4.43545342 0.03022671 -2.72194151 0.04846187 0 0 Z " fill="#66C1F7" transform="translate(578.875,326.75)"/>
<path d="M0 0 C0 0.33 0 0.66 0 1 C-6.48324872 2.64828357 -12.6957397 3.37510561 -19.375 3.75390625 C-21.92395751 3.71128488 -21.92395751 3.71128488 -23 5 C-25.86267567 5.07325168 -28.700719 5.09238205 -31.5625 5.0625 C-32.36880859 5.05798828 -33.17511719 5.05347656 -34.00585938 5.04882812 C-36.00393756 5.03700518 -38.00197783 5.01906914 -40 5 C-40.33 4.34 -40.66 3.68 -41 3 C-39.95199219 3.01740234 -39.95199219 3.01740234 -38.8828125 3.03515625 C-37.97273438 3.04417969 -37.06265625 3.05320312 -36.125 3.0625 C-34.76761719 3.07990234 -34.76761719 3.07990234 -33.3828125 3.09765625 C-30.9831415 3.16249257 -30.9831415 3.16249257 -29 2 C-27.07668012 1.73801264 -25.15246007 1.48083758 -23.22412109 1.25878906 C-21.10885154 1.01266549 -19.00294352 0.72835815 -16.89453125 0.4296875 C-15.53385417 0.24479167 -14.17317708 0.05989583 -12.8125 -0.125 C-12.12736328 -0.22425781 -11.44222656 -0.32351563 -10.73632812 -0.42578125 C-6.90646572 -0.93446365 -3.73738361 -1.03050189 0 0 Z " fill="#3289F0" transform="translate(373,670)"/>
<path d="M0 0 C-2.33501835 2.33501835 -3.70584456 2.3526324 -6.88671875 2.71484375 C-9.23492267 3.03169936 -11.50119866 3.54200222 -13.8125 4.0625 C-18.9131034 5.12022882 -23.80969298 5.19877772 -29 5 C-29 4.67 -29 4.34 -29 4 C-26.36 4 -23.72 4 -21 4 C-21 3.01 -21 2.02 -21 1 C-13.97252688 0.33411422 -7.05985273 -0.11766421 0 0 Z " fill="#5EBDFC" transform="translate(483,706)"/>
<path d="M0 0 C-4.86153654 4.86153654 -13.70013858 4.10672366 -20.20703125 4.13623047 C-23.80565786 4.11993747 -27.40202032 4.07124712 -31 4 C-31 3.67 -31 3.34 -31 3 C-27.3344862 2.49130173 -23.66743573 1.99463592 -20 1.5 C-18.97003906 1.35691406 -17.94007813 1.21382812 -16.87890625 1.06640625 C-11.19367468 0.30596126 -5.73533461 -0.16544234 0 0 Z " fill="#3D92E9" transform="translate(465,637)"/>
<path d="M0 0 C1.21236328 0.02707031 1.21236328 0.02707031 2.44921875 0.0546875 C3.37154297 0.08949219 3.37154297 0.08949219 4.3125 0.125 C3.3225 1.61 3.3225 1.61 2.3125 3.125 C0.64641013 3.16884447 -1.02130554 3.1646713 -2.6875 3.125 C-3.27273438 3.46144531 -3.85796875 3.79789063 -4.4609375 4.14453125 C-7.47696019 5.47263949 -9.68437104 5.10360097 -12.9375 4.75 C-14.01515625 4.63914062 -15.0928125 4.52828125 -16.203125 4.4140625 C-17.43289063 4.27097656 -17.43289063 4.27097656 -18.6875 4.125 C-18.6875 3.795 -18.6875 3.465 -18.6875 3.125 C-17.54861328 3.05152344 -17.54861328 3.05152344 -16.38671875 2.9765625 C-14.89591797 2.86441406 -14.89591797 2.86441406 -13.375 2.75 C-12.38886719 2.68039062 -11.40273438 2.61078125 -10.38671875 2.5390625 C-6.33418676 1.91740057 -4.29876364 -0.12460184 0 0 Z " fill="#5EBBFC" transform="translate(567.6875,693.875)"/>
<path d="M0 0 C-3.1112068 1.76625091 -5.77690768 2.41001291 -9.31640625 2.8515625 C-10.83331055 3.04492188 -10.83331055 3.04492188 -12.38085938 3.2421875 C-13.95577148 3.43167969 -13.95577148 3.43167969 -15.5625 3.625 C-16.61630859 3.7590625 -17.67011719 3.893125 -18.75585938 4.03125 C-26.50091677 5 -26.50091677 5 -30 5 C-30 4.34 -30 3.68 -30 3 C-20.23244542 0.38369074 -10.08854783 -0.1173087 0 0 Z " fill="#2A85F7" transform="translate(557,647)"/>
<path d="M0 0 C3.59622904 3.59622904 2.97016799 9.11351744 3 14 C2.56601888 17.13430807 1.86553578 19.94516782 1 23 C0.67 23 0.34 23 0 23 C0 15.41 0 7.82 0 0 Z " fill="#065CDE" transform="translate(590,620)"/>
<path d="M0 0 C0 0.33 0 0.66 0 1 C-3.33194499 1.50954907 -6.66573634 2.00587014 -10 2.5 C-10.93457031 2.64308594 -11.86914062 2.78617187 -12.83203125 2.93359375 C-18.28940391 3.7350261 -23.48470461 4.15609327 -29 4 C-27.68 3.67 -26.36 3.34 -25 3 C-25 2.34 -25 1.68 -25 1 C-22.33349537 0.83031334 -19.66684474 0.66418179 -17 0.5 C-16.25621094 0.45230469 -15.51242187 0.40460938 -14.74609375 0.35546875 C-9.82037776 0.05564256 -4.93485224 -0.04486229 0 0 Z " fill="#ADD6E6" transform="translate(426,499)"/>
<path d="M0 0 C0.33 0 0.66 0 1 0 C1.30053032 5.50972245 0.69892171 9.51602578 -1.19921875 14.6796875 C-2.47447757 18.37482769 -3.23091417 22.17266699 -4 26 C-5.49770371 22.02957741 -4.54864074 18.74832958 -3.6875 14.6875 C-3.42324219 13.41261719 -3.15898437 12.13773437 -2.88671875 10.82421875 C-2.0386316 7.16660941 -1.06598454 3.59827969 0 0 Z " fill="#4B9CE1" transform="translate(375,427)"/>
<path d="M0 0 C1.53760842 3.07521683 0.36599236 5.34675118 -0.4375 8.625 C-0.72496094 9.81351562 -1.01242187 11.00203125 -1.30859375 12.2265625 C-1.65083984 13.59941406 -1.65083984 13.59941406 -2 15 C-3.32 15.33 -4.64 15.66 -6 16 C-6 12.04 -6 8.08 -6 4 C-5.01 5.32 -4.02 6.64 -3 8 C-2.01 5.36 -1.02 2.72 0 0 Z " fill="#67BDF1" transform="translate(591,427)"/>
<path d="M0 0 C3.44602867 5.74338112 3.1200451 12.43490337 3.0625 18.9375 C3.05573242 19.96327148 3.05573242 19.96327148 3.04882812 21.00976562 C3.0371956 22.67321604 3.01926694 24.3366205 3 26 C2.67 26 2.34 26 2 26 C1.49389097 22.77176021 0.99620093 19.54227635 0.5 16.3125 C0.35691406 15.40048828 0.21382812 14.48847656 0.06640625 13.54882812 C-0.06894531 12.66259766 -0.20429687 11.77636719 -0.34375 10.86328125 C-0.46943359 10.05157471 -0.59511719 9.23986816 -0.72460938 8.40356445 C-1.01114278 5.90274766 -1.11525544 3.51468896 -1 1 C-0.67 0.67 -0.34 0.34 0 0 Z " fill="#197DDE" transform="translate(549,312)"/>
<path d="M0 0 C0.66 0 1.32 0 2 0 C2.2361959 6.40353322 1.823321 11.84629161 0 18 C-0.33 18 -0.66 18 -1 18 C-1.02690844 15.37493198 -1.04679404 12.75013827 -1.0625 10.125 C-1.07087891 9.37863281 -1.07925781 8.63226563 -1.08789062 7.86328125 C-1.11328125 2.2265625 -1.11328125 2.2265625 0 0 Z " fill="#2E91EB" transform="translate(407,431)"/>
<path d="M0 0 C-3.91600147 1.95800073 -6.261899 3.10843739 -10.6875 3 C-14.90172354 2.95163015 -18.82729859 3.38182201 -23 4 C-25.67360451 4.08044474 -28.32426172 4.04694278 -31 4 C-31 3.67 -31 3.34 -31 3 C-20.66393324 1.14203338 -10.51432958 -0.19838358 0 0 Z " fill="#47A0F8" transform="translate(517,701)"/>
<path d="M0 0 C0.33 0 0.66 0 1 0 C1.33 6.93 1.66 13.86 2 21 C1.34 21 0.68 21 0 21 C-2.91587201 15.16825598 -0.80554391 6.2429653 0 0 Z " fill="#329AEA" transform="translate(251,350)"/>
<path d="M0 0 C0.80824219 0.10183594 1.61648438 0.20367188 2.44921875 0.30859375 C3.06410156 0.39238281 3.67898438 0.47617187 4.3125 0.5625 C4.3125 0.8925 4.3125 1.2225 4.3125 1.5625 C-3.41470775 2.79357719 -10.8558819 3.8325558 -18.6875 3.5625 C-18.6875 2.9025 -18.6875 2.2425 -18.6875 1.5625 C-17.92824219 1.50191406 -17.16898437 1.44132813 -16.38671875 1.37890625 C-15.39285156 1.29511719 -14.39898437 1.21132813 -13.375 1.125 C-12.38886719 1.04378906 -11.40273438 0.96257813 -10.38671875 0.87890625 C-1.36737805 -0.17835366 -1.36737805 -0.17835366 0 0 Z " fill="#3687F4" transform="translate(485.6875,655.4375)"/>
<path d="M0 0 C0.33 0 0.66 0 1 0 C0.98839844 0.58007812 0.97679687 1.16015625 0.96484375 1.7578125 C0.92226728 5.44371811 0.96296141 8.79628774 1.625 12.4375 C1.74875 13.283125 1.8725 14.12875 2 15 C1.34 15.66 0.68 16.32 0 17 C-1.69242399 14.04497399 -2.27328801 11.90004978 -2.25 8.5 C-2.25515625 7.7471875 -2.2603125 6.994375 -2.265625 6.21875 C-1.97250404 3.7703279 -1.21816769 2.12695946 0 0 Z " fill="#1383F7" transform="translate(697,451)"/>
<path d="M0 0 C0.66 0 1.32 0 2 0 C1.5096148 2.55000303 0.77677299 4.42704297 -0.4375 6.75 C-2.23842878 10.49593186 -3.09266071 13.95187087 -4 18 C-4.66 18 -5.32 18 -6 18 C-5.0242865 12.19163492 -3.97280327 7.17009264 -1 2 C-0.67 1.34 -0.34 0.68 0 0 Z " fill="#0E80DE" transform="translate(256,332)"/>
<path d="M0 0 C0.66 1.32 1.32 2.64 2 4 C1.51917969 4.39832031 1.03835938 4.79664063 0.54296875 5.20703125 C-1.37391825 7.43450247 -1.47741643 8.78834669 -1.6875 11.6875 C-1.78611328 12.89986328 -1.78611328 12.89986328 -1.88671875 14.13671875 C-1.92410156 14.75160156 -1.96148438 15.36648438 -2 16 C-2.66 15.67 -3.32 15.34 -4 15 C-4.51211281 8.59858988 -4.11888494 5.01989102 0 0 Z " fill="#2777E7" transform="translate(743,449)"/>
<path d="M0 0 C0.91007812 0.00902344 1.82015625 0.01804687 2.7578125 0.02734375 C3.80582031 0.04474609 3.80582031 0.04474609 4.875 0.0625 C3.26941516 1.98786938 2.39730522 2.97324167 -0.11791992 3.40307617 C-0.85631104 3.38736572 -1.59470215 3.37165527 -2.35546875 3.35546875 C-3.15791016 3.34580078 -3.96035156 3.33613281 -4.78710938 3.32617188 C-5.62048828 3.30103516 -6.45386719 3.27589844 -7.3125 3.25 C-8.15748047 3.23646484 -9.00246094 3.22292969 -9.87304688 3.20898438 C-11.95730384 3.17365799 -14.04123277 3.11985139 -16.125 3.0625 C-16.125 2.7325 -16.125 2.4025 -16.125 2.0625 C-15.18527344 1.97162109 -15.18527344 1.97162109 -14.2265625 1.87890625 C-13.00066406 1.75322266 -13.00066406 1.75322266 -11.75 1.625 C-10.93789063 1.54378906 -10.12578125 1.46257813 -9.2890625 1.37890625 C-5.90893735 0.88470023 -3.57039515 -0.0457743 0 0 Z " fill="#57B5FB" transform="translate(398.125,715.9375)"/>
<path d="M0 0 C0.33 0.66 0.66 1.32 1 2 C0.34 2 -0.32 2 -1 2 C-1.17015625 2.70125 -1.3403125 3.4025 -1.515625 4.125 C-3.07268862 10.22073842 -4.98006321 15.48080518 -8 21 C-9.18904232 17.43287305 -8.78762907 16.98418314 -7.1875 13.75 C-5.81311799 10.86473913 -4.69265684 8.167757 -3.9375 5.0625 C-3 2 -3 2 0 0 Z " fill="#4AAFF7" transform="translate(601,405)"/>
<path d="M0 0 C4.62 0 9.24 0 14 0 C10.23140928 2.51239382 7.73760751 3.12663199 3.3125 3.0625 C2.10013672 3.04896484 2.10013672 3.04896484 0.86328125 3.03515625 C-0.05904297 3.01775391 -0.05904297 3.01775391 -1 3 C-0.67 2.01 -0.34 1.02 0 0 Z " fill="#2883F4" transform="translate(407,664)"/>
<path d="M0 0 C-0.33 0.66 -0.66 1.32 -1 2 C-4.56045177 3.18681726 -7.43808337 3.09689832 -11.1875 3.0625 C-12.45980469 3.05347656 -13.73210937 3.04445313 -15.04296875 3.03515625 C-16.50669922 3.01775391 -16.50669922 3.01775391 -18 3 C-18 2.67 -18 2.34 -18 2 C-11.92972642 -0.1583195 -6.40629424 -0.20852314 0 0 Z " fill="#3D91EC" transform="translate(371,578)"/>
<path d="M0 0 C5.95108696 5.75271739 5.95108696 5.75271739 6.125 10.1875 C6.08375 11.115625 6.0425 12.04375 6 13 C5.01 13 4.02 13 3 13 C3 11.35 3 9.7 3 8 C2.34 8 1.68 8 1 8 C0.67 5.36 0.34 2.72 0 0 Z " fill="#267AE8" transform="translate(719,449)"/>
<path d="M0 0 C0.33 0 0.66 0 1 0 C1.07658191 4.51833282 1.10170438 8.59318249 0 13 C-0.185625 13.763125 -0.37125 14.52625 -0.5625 15.3125 C-0.706875 15.869375 -0.85125 16.42625 -1 17 C-1.66 17 -2.32 17 -3 17 C-2.48517081 11.147205 -1.54642808 5.6702363 0 0 Z " fill="#2D89DF" transform="translate(368,458)"/>
<path d="M0 0 C0.33 0 0.66 0 1 0 C1.21755666 5.4389165 1.10428384 9.87080814 -1 15 C-1.66 15 -2.32 15 -3 15 C-2.5547115 9.72684667 -1.91626837 4.98229776 0 0 Z " fill="#3284DF" transform="translate(355,513)"/>
<path d="M0 0 C1.43739513 -0.02712066 2.87493863 -0.04645067 4.3125 -0.0625 C5.51326172 -0.07990234 5.51326172 -0.07990234 6.73828125 -0.09765625 C9 0 9 0 12 1 C12 1.66 12 2.32 12 3 C8.04 3 4.08 3 0 3 C0 2.01 0 1.02 0 0 Z " fill="#3B8BF4" transform="translate(454,658)"/>
<path d="M0 0 C0.66 0.33 1.32 0.66 2 1 C1.57781184 2.6498275 1.13675575 4.29483665 0.6875 5.9375 C0.44386719 6.85402344 0.20023438 7.77054688 -0.05078125 8.71484375 C-0.36402344 9.46894531 -0.67726563 10.22304688 -1 11 C-1.99 11.33 -2.98 11.66 -4 12 C-3.45660208 7.43545749 -2.20536179 4.0271824 0 0 Z " fill="#5CB5FA" transform="translate(610,650)"/>
<path d="M0 0 C1.23556641 0.01740234 1.23556641 0.01740234 2.49609375 0.03515625 C3.32238281 0.04417969 4.14867187 0.05320312 5 0.0625 C5.63808594 0.07410156 6.27617187 0.08570313 6.93359375 0.09765625 C6.93359375 0.42765625 6.93359375 0.75765625 6.93359375 1.09765625 C0.47350538 3.04787161 -5.33824355 3.32027928 -12.06640625 3.09765625 C-12.06640625 2.76765625 -12.06640625 2.43765625 -12.06640625 2.09765625 C-11.10927734 2.00677734 -11.10927734 2.00677734 -10.1328125 1.9140625 C-8.89337891 1.78837891 -8.89337891 1.78837891 -7.62890625 1.66015625 C-6.80519531 1.57894531 -5.98148437 1.49773438 -5.1328125 1.4140625 C-2.72569953 1.04548755 -2.43674783 0.11515822 0 0 Z " fill="#318CF2" transform="translate(426.06640625,527.90234375)"/>
<path d="M0 0 C2.98657372 0.2059706 5.72254337 0.54637415 8.625 1.25 C8.625 1.58 8.625 1.91 8.625 2.25 C3.675 2.58 -1.275 2.91 -6.375 3.25 C-3.375 0.25 -3.375 0.25 0 0 Z " fill="#3791F5" transform="translate(440.375,525.75)"/>
<path d="M0 0 C2.3125 0.5 2.3125 0.5 5 2 C6.91543734 5.2815417 8.29340181 8.45830685 7.5703125 12.2578125 C7.38210938 12.83273437 7.19390625 13.40765625 7 14 C6.74605469 13.32453125 6.49210937 12.6490625 6.23046875 11.953125 C5.88628906 11.06109375 5.54210937 10.1690625 5.1875 9.25 C4.85105469 8.36828125 4.51460938 7.4865625 4.16796875 6.578125 C3.03153178 4.06960192 1.73457073 2.12720995 0 0 Z " fill="#2286EE" transform="translate(411,430)"/>
<path d="M0 0 C0.33 0.99 0.66 1.98 1 3 C-0.98 4.98 -2.96 6.96 -5 9 C-5.99 8.67 -6.98 8.34 -8 8 C-6.37660195 6.29115995 -4.70680947 4.62553283 -3 3 C-2.34 3 -1.68 3 -1 3 C-0.67 2.01 -0.34 1.02 0 0 Z " fill="#2E79E5" transform="translate(581,659)"/>
<path d="M0 0 C-2.58926331 2.58926331 -4.02705279 2.37398043 -7.625 2.625 C-8.62789062 2.69976563 -9.63078125 2.77453125 -10.6640625 2.8515625 C-11.82035156 2.92503906 -11.82035156 2.92503906 -13 3 C-13 2.34 -13 1.68 -13 1 C-11.58622218 0.63447197 -10.16879424 0.28304505 -8.75 -0.0625 C-7.96109375 -0.25972656 -7.1721875 -0.45695313 -6.359375 -0.66015625 C-3.89605178 -1.01497267 -2.34395868 -0.76877544 0 0 Z " fill="#1A75F4" transform="translate(540,649)"/>
<path d="M0 0 C0.33 1.32 0.66 2.64 1 4 C1.66 4 2.32 4 3 4 C2.67 7.3 2.34 10.6 2 14 C1.67 14 1.34 14 1 14 C0.67 9.38 0.34 4.76 0 0 Z " fill="#1884F0" transform="translate(247,475)"/>
<path d="M0 0 C0.66 0 1.32 0 2 0 C2 0.99 2 1.98 2 3 C5.63 3.66 9.26 4.32 13 5 C13 5.33 13 5.66 13 6 C7.32723489 6.29341888 4.00932754 6.00559652 -1 3 C-0.67 2.01 -0.34 1.02 0 0 Z " fill="#448BED" transform="translate(744,469)"/>
<path d="M0 0 C3.63 0 7.26 0 11 0 C11 0.33 11 0.66 11 1 C7.04 1.66 3.08 2.32 -1 3 C-0.67 2.01 -0.34 1.02 0 0 Z " fill="#2B90F9" transform="translate(428,662)"/>
<path d="M0 0 C0.33 0 0.66 0 1 0 C1.33 3.96 1.66 7.92 2 12 C1.34 12 0.68 12 0 12 C-1.28571429 3.42857143 -1.28571429 3.42857143 0 0 Z " fill="#247DE5" transform="translate(277,569)"/>
<path d="M0 0 C0.33 0 0.66 0 1 0 C1.84681133 5.08086796 2.09038099 9.84828377 2 15 C1.67 15 1.34 15 1 15 C-0.42705634 9.69276568 -1.4002792 5.46108889 0 0 Z " fill="#4991E9" transform="translate(275,552)"/>
<path d="M0 0 C0.33 0 0.66 0 1 0 C1.28571429 7.42857143 1.28571429 7.42857143 -1 11 C-2 10 -2 10 -2.1875 7.75 C-1.98598041 4.79437936 -1.22497335 2.67962921 0 0 Z " fill="#3393EA" transform="translate(396,490)"/>
<path d="M0 0 C0.33 0 0.66 0 1 0 C1.390625 5.859375 1.390625 5.859375 1 8 C-0.32 9.32 -1.64 10.64 -3 12 C-2.01 8.04 -1.02 4.08 0 0 Z " fill="#4688E1" transform="translate(807,479)"/>
<path d="M0 0 C-4.73778043 2.36889021 -6.63970918 3.04875255 -12 2 C-8.09971775 -0.60018816 -4.52565431 -0.15085514 0 0 Z " fill="#52ACFB" transform="translate(517,701)"/>
<path d="M0 0 C0.80824219 0.10183594 1.61648438 0.20367188 2.44921875 0.30859375 C3.06410156 0.39238281 3.67898438 0.47617187 4.3125 0.5625 C4.3125 0.8925 4.3125 1.2225 4.3125 1.5625 C-1.6275 2.0575 -1.6275 2.0575 -7.6875 2.5625 C-7.6875 1.9025 -7.6875 1.2425 -7.6875 0.5625 C-4.59271121 -0.46909626 -3.16118607 -0.41232862 0 0 Z " fill="#3F8FF1" transform="translate(485.6875,655.4375)"/>
</svg>
